<?xml version="1.0" encoding="UTF-8"?>
<svg version="1.1" xmlns="http://www.w3.org/2000/svg" width="1414" height="2000">
<path d="M0 0 C466.62 0 933.24 0 1414 0 C1414 660 1414 1320 1414 2000 C947.38 2000 480.76 2000 0 2000 C0 1340 0 680 0 0 Z " fill="#FFFEFE" transform="translate(0,0)"/>
<path d="M0 0 C1.53967186 -0.00330211 3.07934206 -0.00747595 4.61900946 -0.0124402 C8.85678968 -0.02355659 13.09448893 -0.02223181 17.33227905 -0.01888502 C21.94021897 -0.01742185 26.54813615 -0.02747101 31.15606636 -0.03603506 C40.29838149 -0.0511918 49.44067327 -0.05558102 58.58299966 -0.05669317 C69.53242806 -0.05852076 80.48183487 -0.07185672 91.43125398 -0.08538682 C117.89506587 -0.11750741 144.35887546 -0.12931317 170.82270334 -0.13888432 C183.34070158 -0.14355586 195.85869798 -0.15076109 208.37669479 -0.15827507 C250.55240367 -0.18354305 292.72811255 -0.20517062 334.90382885 -0.21195599 C336.91923961 -0.21228047 338.93465038 -0.21261159 340.95006114 -0.21294476 C344.99194437 -0.21361235 349.0338276 -0.21427331 353.07571083 -0.21493387 C357.80769237 -0.21570767 362.5396739 -0.21648688 367.27165543 -0.217276 C368.62598259 -0.21750084 369.98030974 -0.21772368 371.33463689 -0.21794451 C414.82909017 -0.22504307 458.32347736 -0.2551994 501.81790541 -0.30182 C548.47402298 -0.35180928 595.1301108 -0.3805902 641.78625911 -0.38301611 C646.83298171 -0.38335902 651.8797043 -0.38378988 656.92642689 -0.38428497 C658.79040501 -0.38445228 658.79040501 -0.38445228 660.69203926 -0.38462297 C680.69495732 -0.38692482 700.697807 -0.40897571 720.70070197 -0.43805908 C740.80325242 -0.46678214 760.90571518 -0.47326694 781.00828052 -0.45717913 C792.95181192 -0.44826356 804.89506034 -0.45599953 816.83855459 -0.48765614 C824.81863478 -0.50715122 832.79851664 -0.50480413 840.778595 -0.48478368 C845.32416736 -0.4739961 849.86919619 -0.47258918 854.41472358 -0.49780113 C858.55690585 -0.5205838 862.69810561 -0.51531905 866.84025485 -0.48846698 C868.32275242 -0.48362913 869.80532701 -0.48866004 871.28773953 -0.50525993 C888.20978798 -0.68216681 901.76585808 5.49889984 914.18938351 16.95035553 C928.80297056 32.33152493 929.59329623 50.33623224 929.39250851 70.28629303 C929.3850332 72.48588289 929.37934638 74.68547948 929.37535763 76.88507843 C929.36020285 82.62917746 929.32101012 88.37286151 929.27654171 94.1167984 C929.23536817 99.9961562 929.21729976 105.87558211 929.19719601 111.75504303 C929.15450478 123.25782791 929.08637865 134.76030699 929.00188351 146.26285553 C928.12975216 146.28791168 927.25762081 146.31296783 926.35906124 146.33878326 C923.09560588 146.43442916 919.83229743 146.53362909 916.56902218 146.63516998 C915.16183793 146.67824211 913.75461069 146.71993417 912.34734249 146.76016998 C910.31408942 146.81855123 908.28104734 146.88204238 906.24797726 146.94644928 C905.02779903 146.98310699 903.80762081 147.01976471 902.55046749 147.05753326 C898.98786939 147.26366639 895.52547763 147.70753868 892.00188351 148.26285553 C891.99823788 147.03812027 891.99459225 145.81338501 891.99083614 144.55153656 C891.9538717 133.00138448 891.89608283 121.45149865 891.81798077 109.90154934 C891.77849618 103.96378675 891.74631233 98.02617269 891.73088741 92.08829498 C891.71572758 86.35633825 891.68129324 80.62478982 891.63357449 74.89301491 C891.61875388 72.7078335 891.61084211 70.5225938 891.60999966 68.33736229 C891.60763038 65.27294163 891.58055262 62.20964965 891.54778194 59.14542389 C891.55532749 57.79458961 891.55532749 57.79458961 891.56302547 56.41646576 C891.46974802 50.76715383 890.78648957 46.59080949 887.00188351 42.26285553 C879.76867217 36.34155311 871.99606792 36.55511261 863.05136776 36.63085651 C861.52917267 36.62533219 860.00698424 36.61761968 858.48480999 36.60792682 C854.30011041 36.58763266 850.11598144 36.59843636 845.93128408 36.6143164 C841.37938987 36.62609642 836.82758972 36.60891526 832.27571297 36.59543389 C824.29735556 36.57582762 816.3191638 36.57485778 808.34079266 36.58607864 C796.47679941 36.60271945 784.61295414 36.59084563 772.74896827 36.57337079 C751.56117158 36.5431507 730.37344577 36.54174334 709.18563464 36.55272381 C690.64401859 36.56230606 672.10242976 36.56303142 653.56081295 36.55483818 C651.0752545 36.55377239 648.58969605 36.55270685 646.1041376 36.55164155 C642.358803 36.55002051 638.61346841 36.54838821 634.86813382 36.54672853 C600.04093381 36.53146856 565.21374296 36.52597346 530.38654232 36.54132557 C528.41665412 36.54219372 528.41665412 36.54219372 526.4069702 36.54307941 C516.41046972 36.54754558 506.41396936 36.55226349 496.41746902 36.55702323 C454.13860467 36.57712904 411.85984052 36.56890673 369.58098507 36.53556061 C322.84861374 36.49877964 276.11629718 36.48167782 229.38391113 36.49497288 C224.40359212 36.49633042 219.4232731 36.49763048 214.44295406 36.49889946 C212.60348559 36.49939141 212.60348559 36.49939141 210.72685613 36.49989329 C192.19533347 36.50447512 173.66385926 36.4938196 155.13234615 36.47564888 C134.06452225 36.45504665 112.99681949 36.4555638 91.92900252 36.48428128 C80.13307404 36.49974718 68.33742096 36.49860917 56.541507 36.47375424 C48.66748885 36.45882168 40.79368489 36.46560879 32.91969157 36.49024382 C28.42980788 36.50367965 23.94046773 36.507577 19.45060766 36.48516253 C15.36596433 36.46496789 11.2823369 36.47237766 7.19775818 36.50180904 C5.72937748 36.50755931 4.26091424 36.50326454 2.79260494 36.48768408 C-6.02268005 36.40065195 -12.41620841 37.01367348 -18.99811649 43.26285553 C-24.97360053 50.29514503 -23.55855999 60.34638057 -23.51709843 69.04288483 C-23.52297168 70.87265894 -23.53059584 72.70242812 -23.53981876 74.53218842 C-23.56010063 79.56300855 -23.55548899 84.59354702 -23.54690617 89.62438941 C-23.54194985 95.13174242 -23.56020086 100.63902748 -23.57551289 106.14635468 C-23.60176233 116.83698696 -23.60750807 127.52753236 -23.60609414 138.21819288 C-23.60534298 150.58404343 -23.63008725 162.94975639 -23.65485477 175.3155899 C-23.70764639 207.96465057 -23.7257541 240.61375985 -23.74811649 273.26285553 C-23.83061649 346.19285553 -23.91311649 419.12285553 -23.99811649 494.26285553 C224.49188351 494.26285553 472.98188351 494.26285553 729.00188351 494.26285553 C730.65188351 498.55285553 732.30188351 502.84285553 734.00188351 507.26285553 C737.69847706 514.95278753 742.39603035 521.24136984 748.27922726 527.39957428 C750.00188351 529.26285553 750.00188351 529.26285553 750.00188351 530.26285553 C494.58188351 530.26285553 239.16188351 530.26285553 -23.99811649 530.26285553 C-26.31612366 564.94342202 -26.31612366 564.94342202 -18.99811649 597.26285553 C-14.17791852 601.8420436 -10.44128025 603.51274186 -3.81845522 603.51355386 C-2.53904989 603.51856089 -1.25964456 603.52356793 0.05853063 603.5287267 C1.48419076 603.52417287 2.90985031 603.51943647 4.3355093 603.51453781 C5.85167682 603.51662312 7.36784335 603.51958489 8.88400763 603.52334654 C13.07510923 603.531174 17.26611936 603.5264542 21.45721956 603.51979064 C26.00742969 603.51473802 30.55762529 603.52122878 35.10783339 603.5262773 C43.09085179 603.53351855 51.07384317 603.53327061 59.05686283 603.52818298 C70.92761795 603.52063813 82.79835015 603.524475 94.6691051 603.5305996 C115.86656169 603.54114852 137.06400624 603.54021137 158.26146398 603.53444177 C176.81133677 603.52941739 195.36120513 603.52809411 213.91107845 603.53048706 C215.13991259 603.53063983 216.36874673 603.5307926 217.63481826 603.53095 C222.6226303 603.53157264 227.61044235 603.53220944 232.59825438 603.53286953 C278.75129975 603.53890473 324.90433817 603.53374597 371.05738233 603.52313655 C413.35578149 603.51342356 455.65416799 603.51387438 497.9525671 603.52359772 C544.68703969 603.53430608 591.42150594 603.53855805 638.15597963 603.53237319 C643.13488261 603.53173172 648.11378558 603.53110604 653.09268856 603.53048706 C654.31868734 603.53032891 655.54468613 603.53017075 656.80783639 603.5300078 C675.34937304 603.5277296 693.89090479 603.53039947 712.43244076 603.53544617 C733.50781094 603.54115381 754.58316717 603.5397583 775.6585356 603.52888468 C787.46429064 603.52299512 799.2700155 603.52265315 811.07576978 603.53017703 C818.95012054 603.53464339 826.82444699 603.53190419 834.69879413 603.52316749 C839.19292881 603.51838523 843.68700329 603.51683409 848.18113619 603.52397946 C852.26367877 603.5304046 856.34610733 603.52774703 860.42864148 603.51761813 C861.90199918 603.51559171 863.37536618 603.51696748 864.84871658 603.52203001 C866.83987698 603.52839016 868.83106693 603.52134638 870.82222223 603.51355386 C871.92754186 603.51341834 873.03286149 603.51328282 874.17167565 603.5131432 C877.00085066 603.26294687 878.56453829 602.63808179 881.00188351 601.26285553 C883.11516476 601.25113678 883.11516476 601.25113678 885.31438351 601.57535553 C886.39139523 601.72424225 886.39139523 601.72424225 887.49016476 601.87613678 C889.40489812 602.17094021 891.31921094 602.46847645 893.23332882 602.76725006 C896.78337342 603.2341191 900.23362142 603.46387933 903.81047726 603.57926178 C905.67156124 603.64210358 905.67156124 603.64210358 907.57024288 603.7062149 C909.48546749 603.76518951 909.48546749 603.76518951 911.43938351 603.82535553 C912.74327023 603.86853912 914.04715694 603.91172272 915.39055538 603.9562149 C918.59423667 604.06183077 921.79798961 604.16393654 925.00188351 604.26285553 C919.50816077 619.08543925 910.41372237 628.95527006 896.22453976 635.90348053 C894.62932491 636.57637115 894.62932491 636.57637115 893.00188351 637.26285553 C892.42650264 637.51904059 891.85112178 637.77522565 891.25830513 638.0391739 C883.88348448 640.94066639 876.43649821 640.67240304 868.64517879 640.62361908 C867.08648476 640.62492865 865.52779137 640.62755786 863.96910149 640.63138658 C859.70235853 640.63807371 855.4358428 640.62612338 851.16912878 640.61105239 C846.56188221 640.59807065 841.95464798 640.602483 837.34738827 640.60475922 C829.37044342 640.6063306 821.39357231 640.5969355 813.416646 640.5800457 C801.88342801 640.55564197 790.35024559 640.54784902 778.81700457 640.54408173 C760.10411524 640.5375194 741.39126519 640.51756417 722.67839718 640.48917389 C704.50294345 640.46162766 686.32750039 640.44039683 668.15202999 640.42765045 C667.03128417 640.42686228 665.91053834 640.42607411 664.75583052 640.42526206 C659.1332555 640.42134688 653.51068041 640.41755577 647.88810527 640.41382635 C601.25933609 640.38273726 554.63061491 640.32908049 508.00188351 640.26285553 C508.00188351 658.41285553 508.00188351 676.56285553 508.00188351 695.26285553 C512.16813351 695.20484772 516.33438351 695.1468399 520.62688351 695.08707428 C523.96613475 695.05487923 527.30534165 695.02777974 530.64466 695.00410461 C534.16037722 694.97779031 537.67548364 694.94267751 541.19084835 694.88565826 C545.23208404 694.82052573 549.27268122 694.79659935 553.31438351 694.77457428 C554.5636462 694.74876785 555.8129089 694.72296143 557.10002804 694.69637299 C564.37377699 694.69404627 569.45244841 695.33378013 575.00188351 700.26285553 C578.9780469 704.24289945 581.12290749 707.75646342 581.31438351 713.45035553 C581.2325652 719.72991022 579.03476876 724.28209554 574.56438351 728.63785553 C568.48164104 732.49520441 563.40030713 732.55377172 556.35605526 732.53701019 C555.27120273 732.54224687 554.18635021 732.54748355 553.06862336 732.55287892 C549.42679211 732.56790265 545.78510107 732.5685846 542.14324093 732.56925201 C539.53482481 732.57687186 536.92641095 732.58529906 534.31799984 732.59447479 C527.22707642 732.61730882 520.13618296 732.62524355 513.04522777 732.63030124 C508.61634453 732.63355985 504.18746998 732.64008329 499.75859165 732.64730263 C487.49221197 732.66686578 475.22584034 732.68327189 462.95944405 732.68617916 C461.78239931 732.68646052 461.78239931 732.68646052 460.58157589 732.68674755 C458.99086464 732.6871138 457.40015338 732.6874775 455.80944213 732.68783867 C454.6250241 732.68811288 454.6250241 732.68811288 453.41667843 732.68839264 C452.62610089 732.68857319 451.83552335 732.68875374 451.02098892 732.68893976 C438.20998043 732.69248163 425.39914 732.71950605 412.5881898 732.75689053 C399.43011948 732.79498022 386.27213254 732.81433668 373.11400586 732.81463867 C365.72825755 732.81522306 358.34270979 732.82370324 350.95701313 732.85263634 C344.01057255 732.87972394 337.06453524 732.88104943 330.11806202 732.8649807 C327.56873109 732.86316231 325.01937758 732.86989183 322.47009563 732.88579941 C318.98914565 732.90619616 315.50959444 732.89574372 312.02866268 732.87758636 C311.02038377 732.89078633 310.01210485 732.9039863 308.97327203 732.91758627 C302.46523319 732.84007517 297.9938897 731.55906898 293.00188351 727.26285553 C288.22785718 721.14230895 287.16912054 715.86479175 288.00188351 708.26285553 C290.43980495 703.19197893 294.44943673 699.50554964 299.00188351 696.26285553 C302.18028041 695.20338989 304.42033699 695.14221257 307.7584753 695.14933014 C308.93947308 695.14940567 310.12047085 695.1494812 311.33725643 695.14955902 C312.61232555 695.15472031 313.88739468 695.15988159 315.20110226 695.16519928 C317.15908497 695.1673217 317.15908497 695.1673217 319.15662289 695.169487 C322.62378007 695.17330173 326.09089524 695.18312309 329.55803585 695.19419098 C333.09725523 695.20442755 336.6364816 695.20904424 340.17571163 695.2140274 C347.11780601 695.22421539 354.05978507 695.24378965 361.00188351 695.26285553 C361.00188351 677.11285553 361.00188351 658.96285553 361.00188351 640.26285553 C356.32019482 640.27173798 351.63850613 640.28062042 346.81494808 640.28977203 C303.86504809 640.36939859 260.91515685 640.42909857 217.96519916 640.46711685 C212.33395383 640.47211957 206.70270866 640.47729687 201.07146358 640.48258209 C199.95040247 640.48363133 198.82934135 640.48468058 197.67430868 640.48576161 C179.5315243 640.50315826 161.38879071 640.53469189 143.24603645 640.57146671 C124.62450249 640.6088967 106.00299511 640.63109574 87.38142508 640.63920951 C75.89452473 640.644693 64.40776796 640.66200094 52.92091181 640.6945214 C45.03977862 640.71569467 37.15871947 640.72204919 29.27755991 640.71686104 C24.73317802 640.71430365 20.18904672 640.718174 15.64470959 640.73967743 C11.47736124 640.75925218 7.31043018 640.76005534 3.14306196 640.74645111 C1.64215919 640.74477163 0.14122957 640.74975303 -1.35962095 640.76238826 C-19.1224527 640.90313086 -32.79309776 635.79999759 -45.74421024 623.59879303 C-56.39513022 612.56023125 -60.16063358 598.05712505 -60.12954426 583.06503201 C-60.13159689 582.14352841 -60.13364953 581.22202481 -60.13576436 580.27259687 C-60.14143465 577.1738723 -60.13997707 574.07519217 -60.13855839 570.97646332 C-60.14114201 568.73665807 -60.14415516 566.49685329 -60.14756179 564.25704914 C-60.15563545 558.09324477 -60.15742157 551.92945204 -60.15815926 545.765643 C-60.15981926 539.8033984 -60.16613689 533.84115917 -60.17223767 527.87891786 C-60.18829199 511.9057555 -60.19420036 495.9325941 -60.19898642 479.95942511 C-60.20132299 472.40157851 -60.20492571 464.84373267 -60.20868179 457.28588665 C-60.22151695 431.40967483 -60.23223605 405.53346343 -60.23568439 379.6572485 C-60.23590603 378.0331076 -60.23612781 376.4089667 -60.23634975 374.78482581 C-60.23657039 373.15678325 -60.23679087 371.52874069 -60.23701119 369.90069813 C-60.23745374 366.63461713 -60.23790086 363.36853613 -60.23835087 360.10245514 C-60.23846026 359.2926579 -60.23856965 358.48286066 -60.23868236 357.64852411 C-60.24231248 331.39449248 -60.25823105 305.14048846 -60.28154123 278.88646741 C-60.30614654 251.12294727 -60.31985756 223.35944292 -60.32105231 195.59591156 C-60.32122376 192.54715446 -60.32143919 189.49839737 -60.32168674 186.44964027 C-60.32174251 185.69896191 -60.32179828 184.94828355 -60.32185574 184.17485736 C-60.32300559 172.10292885 -60.33402199 160.03102871 -60.3485738 147.95910977 C-60.36295214 135.82103908 -60.36616824 123.6830047 -60.35813382 111.54492783 C-60.3540749 104.97125692 -60.35516224 98.39766237 -60.36919117 91.82400131 C-60.38192342 85.80284534 -60.38073829 79.78185643 -60.36860046 73.76070071 C-60.36664231 71.58569521 -60.36972729 69.41067789 -60.37844482 67.23568898 C-60.45662017 46.40790825 -58.09168666 29.90921569 -42.99811649 14.26285553 C-29.79652103 3.10036 -16.90562255 -0.04418699 0 0 Z " fill="#FFD068" transform="translate(226.9981164932251,499.73714447021484)"/>
<path d="M0 0 C1.22794533 -0.02409439 1.22794533 -0.02409439 2.48069763 -0.04867554 C6.24183916 -0.09369902 10.00281084 -0.13424796 13.76416016 -0.15722656 C15.73368217 -0.17369441 17.70314672 -0.20086129 19.67236328 -0.23925781 C33.91058943 -0.51493691 46.08565712 -0.01513031 57.80493164 9.19287109 C58.62670898 9.78455078 58.62670898 9.78455078 59.46508789 10.38818359 C66.16769434 15.54403471 71.17806101 22.80135999 73.05493164 31.06787109 C73.93279319 34.1321048 74.58119798 35.03150727 77.21508789 36.93115234 C81.20862259 38.92523225 84.32332273 40.40893906 88.80493164 39.75537109 C90.28993164 38.98193359 90.28993164 38.98193359 91.80493164 38.19287109 C104.08186869 32.3912035 116.75202265 32.66342883 129.58227539 36.63427734 C138.70668856 41.04717535 145.92081994 47.7751585 153.00146484 54.88842773 C154.48755394 56.3754902 155.99374895 57.83986474 157.50219727 59.30419922 C167.53417544 69.20900478 174.89196439 79.84480872 175.23486328 94.31201172 C175.23860962 95.58334961 175.23860962 95.58334961 175.24243164 96.88037109 C175.24557373 97.76015625 175.24871582 98.63994141 175.25195312 99.54638672 C175.11592126 106.98917546 173.20547489 112.59247239 169.80493164 119.19287109 C168.39502197 122.82554653 169.07537977 125.04547848 170.49243164 128.63037109 C172.75863194 133.40331809 174.70796369 135.10372908 179.61743164 137.00537109 C181.19524414 137.54484375 181.19524414 137.54484375 182.80493164 138.09521484 C187.17542695 139.69431534 190.33157155 142.15745641 193.80493164 145.19287109 C194.39790039 145.66982422 194.99086914 146.14677734 195.60180664 146.63818359 C202.07609779 152.33899748 207.05051092 161.71769959 208.80493164 170.19287109 C208.92424638 173.11879381 208.99288536 176.02024857 209.00805664 178.94677734 C209.01375671 179.80287094 209.01945679 180.65896454 209.02532959 181.54100037 C209.03476742 183.35406261 209.04130873 185.16714191 209.04516602 186.98022461 C209.0548119 189.7213444 209.08582153 192.46169467 209.11743164 195.20263672 C209.21089286 210.42552398 207.42808572 224.33724584 196.55493164 236.00537109 C191.16690529 240.95428517 185.14434535 244.75006797 177.99243164 246.38037109 C174.8667625 247.29086797 173.97621791 247.9435849 172.09790039 250.67724609 C169.52226158 255.68720035 169.52226158 255.68720035 169.02758789 261.15380859 C169.65401537 262.79700028 170.31918521 264.42539359 170.99633789 266.04833984 C175.9744845 278.14622889 177.18541002 290.93989596 172.14990234 303.31542969 C167.83639166 312.54379 160.76310128 319.76678097 153.62719727 326.87158203 C152.0567483 328.44105557 150.50892814 330.03073071 148.96118164 331.62255859 C138.84433616 341.86443203 128.58781161 348.30083438 113.90307617 348.57226562 C113.10756348 348.57081543 112.31205078 348.56936523 111.49243164 348.56787109 C110.6608252 348.56770996 109.82921875 348.56754883 108.97241211 348.56738281 C101.26857057 348.42485799 95.19972579 346.42191069 88.36352539 342.95458984 C84.05352695 341.67146054 81.2105215 343.40538583 77.32055664 345.31396484 C73.61213086 348.08376733 72.89617971 351.01052675 71.67211914 355.35302734 C68.85509594 364.57814386 61.34748888 371.89910405 53.21508789 376.73193359 C50.76970986 377.98955658 48.34887379 379.14940993 45.80493164 380.19287109 C44.55353394 380.70756958 44.55353394 380.70756958 43.27685547 381.23266602 C38.73362586 382.48915445 34.4905555 382.53647846 29.79711914 382.56396484 C28.83524689 382.57299332 27.87337463 382.58202179 26.88235474 382.59132385 C24.85006809 382.60579566 22.81773519 382.61470544 20.78540039 382.6184082 C17.71035913 382.63025388 14.63735954 382.67942736 11.56274414 382.72998047 C0.93923065 382.81838419 -7.83961677 382.7470313 -17.19506836 377.19287109 C-18.29463867 376.57025391 -19.39420898 375.94763672 -20.52709961 375.30615234 C-30.36420104 368.16457162 -35.91966997 359.91106658 -39.19506836 348.19287109 C-39.19506836 347.53287109 -39.19506836 346.87287109 -39.19506836 346.19287109 C-40.06131836 346.08974609 -40.92756836 345.98662109 -41.82006836 345.88037109 C-45.19506836 345.19287109 -45.19506836 345.19287109 -48.25756836 343.50537109 C-51.06513073 341.85448963 -51.06513073 341.85448963 -53.55834961 342.97802734 C-54.4284668 343.37892578 -55.29858398 343.77982422 -56.19506836 344.19287109 C-67.61169795 349.18992622 -81.24483582 350.57204896 -93.25756836 346.63037109 C-102.89094655 342.17258432 -110.53098721 335.39391953 -117.96435547 327.92456055 C-119.37759533 326.51034755 -120.81271867 325.11811554 -122.24780273 323.72607422 C-133.457105 312.54801739 -139.83658628 301.00947973 -140.50756836 285.06787109 C-140.45720729 277.78565983 -138.408829 270.45417143 -135.05053711 263.98974609 C-133.69995099 261.15289854 -134.4324307 259.18475729 -135.19506836 256.19287109 C-135.46319336 255.01724609 -135.73131836 253.84162109 -136.00756836 252.63037109 C-137.66006602 248.91835664 -140.14511255 248.08727861 -143.82006836 246.63037109 C-145.42301758 246.03482422 -145.42301758 246.03482422 -147.05834961 245.42724609 C-159.28349266 240.61635543 -166.91134849 230.99063784 -172.05786133 219.21948242 C-174.88168006 211.23876755 -174.64894204 203.16496673 -174.58618164 194.80737305 C-174.57012348 192.26410092 -174.58607864 189.72242262 -174.60522461 187.17919922 C-174.62560368 170.99376308 -171.86508251 158.57184689 -160.55834961 146.52490234 C-154.18469872 140.23553114 -147.49872267 135.19287109 -138.19506836 135.19287109 C-134.61731765 126.8359036 -134.61731765 126.8359036 -134.96069336 118.29443359 C-135.63433026 116.98234978 -136.34191005 115.68686952 -137.08959961 114.41552734 C-141.85998197 104.8241932 -141.70064658 91.99162039 -138.69506836 81.81787109 C-134.35777152 71.12161463 -126.36297595 62.87466114 -118.25756836 54.88037109 C-117.41516602 54.02636719 -116.57276367 53.17236328 -115.70483398 52.29248047 C-103.75460654 40.39745038 -92.12697169 33.95886064 -75.19799805 33.8671875 C-67.27149907 33.97395779 -61.15188616 36.29359855 -54.07006836 39.69287109 C-50.09195692 40.38471656 -47.75406596 38.96803046 -44.24584961 37.13818359 C-42.19506836 36.19287109 -42.19506836 36.19287109 -39.19506836 36.19287109 C-39.15381836 35.26474609 -39.11256836 34.33662109 -39.07006836 33.38037109 C-37.76116808 24.29181003 -31.26039687 15.16454913 -24.13256836 9.57568359 C-16.93461993 4.55211542 -8.94138765 0.16064595 0 0 Z " fill="#FFFEFE" transform="translate(1130.195068359375,682.80712890625)"/>
<path d="M0 0 C1.22794533 -0.02409439 1.22794533 -0.02409439 2.48069763 -0.04867554 C6.24183916 -0.09369902 10.00281084 -0.13424796 13.76416016 -0.15722656 C15.73368217 -0.17369441 17.70314672 -0.20086129 19.67236328 -0.23925781 C33.91058943 -0.51493691 46.08565712 -0.01513031 57.80493164 9.19287109 C58.62670898 9.78455078 58.62670898 9.78455078 59.46508789 10.38818359 C66.16769434 15.54403471 71.17806101 22.80135999 73.05493164 31.06787109 C73.93279319 34.1321048 74.58119798 35.03150727 77.21508789 36.93115234 C81.20862259 38.92523225 84.32332273 40.40893906 88.80493164 39.75537109 C90.28993164 38.98193359 90.28993164 38.98193359 91.80493164 38.19287109 C104.08186869 32.3912035 116.75202265 32.66342883 129.58227539 36.63427734 C138.70668856 41.04717535 145.92081994 47.7751585 153.00146484 54.88842773 C154.48755394 56.3754902 155.99374895 57.83986474 157.50219727 59.30419922 C167.53417544 69.20900478 174.89196439 79.84480872 175.23486328 94.31201172 C175.23860962 95.58334961 175.23860962 95.58334961 175.24243164 96.88037109 C175.24557373 97.76015625 175.24871582 98.63994141 175.25195312 99.54638672 C175.11592126 106.98917546 173.20547489 112.59247239 169.80493164 119.19287109 C168.39502197 122.82554653 169.07537977 125.04547848 170.49243164 128.63037109 C172.75863194 133.40331809 174.70796369 135.10372908 179.61743164 137.00537109 C181.19524414 137.54484375 181.19524414 137.54484375 182.80493164 138.09521484 C187.17542695 139.69431534 190.33157155 142.15745641 193.80493164 145.19287109 C194.39790039 145.66982422 194.99086914 146.14677734 195.60180664 146.63818359 C202.07609779 152.33899748 207.05051092 161.71769959 208.80493164 170.19287109 C208.92424638 173.11879381 208.99288536 176.02024857 209.00805664 178.94677734 C209.01375671 179.80287094 209.01945679 180.65896454 209.02532959 181.54100037 C209.03476742 183.35406261 209.04130873 185.16714191 209.04516602 186.98022461 C209.0548119 189.7213444 209.08582153 192.46169467 209.11743164 195.20263672 C209.21089286 210.42552398 207.42808572 224.33724584 196.55493164 236.00537109 C191.16690529 240.95428517 185.14434535 244.75006797 177.99243164 246.38037109 C174.8667625 247.29086797 173.97621791 247.9435849 172.09790039 250.67724609 C169.52226158 255.68720035 169.52226158 255.68720035 169.02758789 261.15380859 C169.65401537 262.79700028 170.31918521 264.42539359 170.99633789 266.04833984 C175.9744845 278.14622889 177.18541002 290.93989596 172.14990234 303.31542969 C167.83639166 312.54379 160.76310128 319.76678097 153.62719727 326.87158203 C152.0567483 328.44105557 150.50892814 330.03073071 148.96118164 331.62255859 C138.84433616 341.86443203 128.58781161 348.30083438 113.90307617 348.57226562 C113.10756348 348.57081543 112.31205078 348.56936523 111.49243164 348.56787109 C110.6608252 348.56770996 109.82921875 348.56754883 108.97241211 348.56738281 C101.26857057 348.42485799 95.19972579 346.42191069 88.36352539 342.95458984 C84.05352695 341.67146054 81.2105215 343.40538583 77.32055664 345.31396484 C73.61213086 348.08376733 72.89617971 351.01052675 71.67211914 355.35302734 C68.85509594 364.57814386 61.34748888 371.89910405 53.21508789 376.73193359 C50.76970986 377.98955658 48.34887379 379.14940993 45.80493164 380.19287109 C44.55353394 380.70756958 44.55353394 380.70756958 43.27685547 381.23266602 C38.73362586 382.48915445 34.4905555 382.53647846 29.79711914 382.56396484 C28.83524689 382.57299332 27.87337463 382.58202179 26.88235474 382.59132385 C24.85006809 382.60579566 22.81773519 382.61470544 20.78540039 382.6184082 C17.71035913 382.63025388 14.63735954 382.67942736 11.56274414 382.72998047 C0.93923065 382.81838419 -7.83961677 382.7470313 -17.19506836 377.19287109 C-18.29463867 376.57025391 -19.39420898 375.94763672 -20.52709961 375.30615234 C-30.36420104 368.16457162 -35.91966997 359.91106658 -39.19506836 348.19287109 C-39.19506836 347.53287109 -39.19506836 346.87287109 -39.19506836 346.19287109 C-40.06131836 346.08974609 -40.92756836 345.98662109 -41.82006836 345.88037109 C-45.19506836 345.19287109 -45.19506836 345.19287109 -48.25756836 343.50537109 C-51.06513073 341.85448963 -51.06513073 341.85448963 -53.55834961 342.97802734 C-54.4284668 343.37892578 -55.29858398 343.77982422 -56.19506836 344.19287109 C-67.61169795 349.18992622 -81.24483582 350.57204896 -93.25756836 346.63037109 C-102.89094655 342.17258432 -110.53098721 335.39391953 -117.96435547 327.92456055 C-119.37759533 326.51034755 -120.81271867 325.11811554 -122.24780273 323.72607422 C-133.457105 312.54801739 -139.83658628 301.00947973 -140.50756836 285.06787109 C-140.45720729 277.78565983 -138.408829 270.45417143 -135.05053711 263.98974609 C-133.69995099 261.15289854 -134.4324307 259.18475729 -135.19506836 256.19287109 C-135.46319336 255.01724609 -135.73131836 253.84162109 -136.00756836 252.63037109 C-137.66006602 248.91835664 -140.14511255 248.08727861 -143.82006836 246.63037109 C-145.42301758 246.03482422 -145.42301758 246.03482422 -147.05834961 245.42724609 C-159.28349266 240.61635543 -166.91134849 230.99063784 -172.05786133 219.21948242 C-174.88168006 211.23876755 -174.64894204 203.16496673 -174.58618164 194.80737305 C-174.57012348 192.26410092 -174.58607864 189.72242262 -174.60522461 187.17919922 C-174.62560368 170.99376308 -171.86508251 158.57184689 -160.55834961 146.52490234 C-154.18469872 140.23553114 -147.49872267 135.19287109 -138.19506836 135.19287109 C-134.61731765 126.8359036 -134.61731765 126.8359036 -134.96069336 118.29443359 C-135.63433026 116.98234978 -136.34191005 115.68686952 -137.08959961 114.41552734 C-141.85998197 104.8241932 -141.70064658 91.99162039 -138.69506836 81.81787109 C-134.35777152 71.12161463 -126.36297595 62.87466114 -118.25756836 54.88037109 C-117.41516602 54.02636719 -116.57276367 53.17236328 -115.70483398 52.29248047 C-103.75460654 40.39745038 -92.12697169 33.95886064 -75.19799805 33.8671875 C-67.27149907 33.97395779 -61.15188616 36.29359855 -54.07006836 39.69287109 C-50.09195692 40.38471656 -47.75406596 38.96803046 -44.24584961 37.13818359 C-42.19506836 36.19287109 -42.19506836 36.19287109 -39.19506836 36.19287109 C-39.15381836 35.26474609 -39.11256836 34.33662109 -39.07006836 33.38037109 C-37.76116808 24.29181003 -31.26039687 15.16454913 -24.13256836 9.57568359 C-16.93461993 4.55211542 -8.94138765 0.16064595 0 0 Z M-4.19506836 42.19287109 C-4.87361069 44.87892679 -4.87361069 44.87892679 -4.68334961 47.71240234 C-4.66723633 48.73398437 -4.65112305 49.75556641 -4.63452148 50.80810547 C-4.57167969 52.39075195 -4.57167969 52.39075195 -4.50756836 54.00537109 C-4.48500977 55.07980469 -4.46245117 56.15423828 -4.43920898 57.26123047 C-4.38042434 59.90653959 -4.29830793 62.54898522 -4.19506836 65.19287109 C-4.81687988 65.23532959 -5.43869141 65.27778809 -6.0793457 65.3215332 C-11.9718979 65.80448352 -17.24043528 66.82140978 -22.82006836 68.75537109 C-23.9663269 69.14583618 -23.9663269 69.14583618 -25.13574219 69.54418945 C-34.48459042 72.84554065 -43.98975967 76.86685834 -51.83959961 83.00146484 C-54.08201823 84.61581821 -54.92342941 85.16946835 -57.73413086 85.41162109 C-62.10541166 83.24679631 -65.00252562 79.45916926 -68.20288086 75.85302734 C-70.92683464 72.94099104 -72.84269243 71.33156368 -76.60913086 69.84912109 C-82.05323062 70.37099558 -84.464229 73.41262239 -88.19506836 77.19287109 C-89.69347633 78.5917138 -91.19350777 79.9888193 -92.69506836 81.38427734 C-94.19771549 82.83857844 -95.69770195 84.29563348 -97.19506836 85.75537109 C-98.3571582 86.84881836 -98.3571582 86.84881836 -99.54272461 87.96435547 C-103.8160581 92.04765617 -103.8160581 92.04765617 -105.92163086 97.41162109 C-105.05026609 100.74716796 -103.82329665 102.52692193 -101.57006836 105.13037109 C-100.8469043 105.98888672 -100.12374023 106.84740234 -99.37866211 107.73193359 C-98.03651147 109.24455418 -96.67788677 110.74297389 -95.29272461 112.21630859 C-94.74487305 112.80669922 -94.19702148 113.39708984 -93.63256836 114.00537109 C-93.1362793 114.50681641 -92.63999023 115.00826172 -92.12866211 115.52490234 C-91.19506836 117.19287109 -91.19506836 117.19287109 -91.37475586 119.60693359 C-92.23870548 122.33043192 -93.33644292 124.35705052 -94.88256836 126.75537109 C-103.12029848 140.07007158 -111.19506836 156.18307974 -111.19506836 172.19287109 C-111.83532959 172.16668701 -112.47559082 172.14050293 -113.13525391 172.11352539 C-116.05077338 172.00925828 -118.96590034 171.94445357 -121.88256836 171.88037109 C-122.8899707 171.83847656 -123.89737305 171.79658203 -124.93530273 171.75341797 C-125.91176758 171.73730469 -126.88823242 171.72119141 -127.89428711 171.70458984 C-128.78978271 171.67840576 -129.68527832 171.65222168 -130.60791016 171.62524414 C-134.42605569 172.46295183 -135.86259526 174.10737045 -138.19506836 177.19287109 C-138.91149031 180.59561472 -138.91149031 180.59561472 -138.75366211 184.32177734 C-138.75133072 184.9932933 -138.74899933 185.66480927 -138.74659729 186.35667419 C-138.7368951 187.76956981 -138.71518875 189.18242859 -138.68212891 190.5949707 C-138.63263327 192.75254143 -138.62064032 194.90783009 -138.61499023 197.06591797 C-138.92321202 205.00044206 -138.92321202 205.00044206 -136.19506836 212.19287109 C-132.84387317 214.42700122 -131.77729286 214.43134871 -127.87084961 214.38818359 C-126.84282227 214.38173828 -125.81479492 214.37529297 -124.75561523 214.36865234 C-123.68375977 214.35189453 -122.6119043 214.33513672 -121.50756836 214.31787109 C-120.42411133 214.30884766 -119.3406543 214.29982422 -118.22436523 214.29052734 C-115.54771126 214.26694449 -112.87150039 214.23403236 -110.19506836 214.19287109 C-110.13665771 214.78310059 -110.07824707 215.37333008 -110.01806641 215.98144531 C-108.32342034 232.26933891 -102.17564976 246.93827487 -93.27099609 260.55859375 C-92.63013062 261.57445557 -92.63013062 261.57445557 -91.97631836 262.61083984 C-91.58508789 263.20662842 -91.19385742 263.80241699 -90.79077148 264.41625977 C-90.19506836 266.19287109 -90.19506836 266.19287109 -90.89379883 268.2277832 C-92.19615286 270.19450883 -93.49199763 271.63288555 -95.23413086 273.21630859 C-96.10424805 274.03615234 -96.10424805 274.03615234 -96.99194336 274.87255859 C-98.21102539 276.00307484 -99.43764634 277.12551534 -100.67163086 278.23974609 C-103.36897002 280.80462664 -104.99109526 282.48182469 -106.03100586 286.10693359 C-104.73013221 290.90922418 -101.61397171 293.69009278 -98.19506836 297.19287109 C-97.51573242 297.93424316 -96.83639648 298.67561523 -96.13647461 299.43945312 C-94.02276804 301.74553849 -91.86487956 304.00210561 -89.69506836 306.25537109 C-88.97448242 307.03847656 -88.25389648 307.82158203 -87.51147461 308.62841797 C-83.31486373 313.07034676 -83.31486373 313.07034676 -77.57788086 314.52490234 C-73.46046947 312.90361218 -70.77633162 310.80936074 -67.57006836 307.81787109 C-63.93476226 304.5255184 -60.53268192 301.56323984 -56.19506836 299.19287109 C-55.4306543 299.68916016 -54.66624023 300.18544922 -53.87866211 300.69677734 C-38.37135311 310.53113576 -21.73345701 318.62272333 -3.19506836 320.19287109 C-3.22125244 320.80283936 -3.24743652 321.41280762 -3.27441406 322.04125977 C-3.37872555 324.82069867 -3.44349818 327.59972548 -3.50756836 330.38037109 C-3.54946289 331.34007812 -3.59135742 332.29978516 -3.63452148 333.28857422 C-3.65063477 334.21992187 -3.66674805 335.15126953 -3.68334961 336.11083984 C-3.70953369 336.96444092 -3.73571777 337.81804199 -3.76269531 338.69750977 C-2.91024279 342.44500104 -1.21600508 343.88874536 1.80493164 346.19287109 C5.18907827 346.94085234 5.18907827 346.94085234 8.89868164 346.82177734 C9.90239807 346.82539528 9.90239807 346.82539528 10.9263916 346.8290863 C12.33502149 346.82811088 13.74369115 346.81478958 15.15209961 346.78979492 C17.29942971 346.75545907 19.44264413 346.76915035 21.59008789 346.78857422 C22.96380319 346.7816752 24.33750795 346.77200229 25.71118164 346.75927734 C26.9519043 346.74840088 28.19262695 346.73752441 29.47094727 346.72631836 C33.36392384 346.10343071 35.02527093 344.93378307 37.80493164 342.19287109 C39.05741666 339.68790106 38.91867571 337.98433835 38.90258789 335.18505859 C38.89936523 334.19892578 38.89614258 333.21279297 38.89282227 332.19677734 C38.88444336 331.16423828 38.87606445 330.13169922 38.86743164 329.06787109 C38.86066406 327.50746094 38.86066406 327.50746094 38.85375977 325.91552734 C38.84195116 323.34125148 38.82548239 320.76708963 38.80493164 318.19287109 C39.97282227 318.11552734 39.97282227 318.11552734 41.16430664 318.03662109 C57.36902978 316.39374594 71.78931911 309.24143678 85.61743164 300.97802734 C90.09714308 298.46916934 90.09714308 298.46916934 92.80493164 298.19287109 C94.51245117 299.34863281 94.51245117 299.34863281 96.18774414 301.12255859 C96.7974707 301.75291016 97.40719727 302.38326172 98.03540039 303.03271484 C98.6605957 303.70431641 99.28579102 304.37591797 99.92993164 305.06787109 C101.18057174 306.37964228 102.43308894 307.68962716 103.68774414 308.99755859 C104.51363037 309.87903564 104.51363037 309.87903564 105.35620117 310.77832031 C107.34185356 312.7171255 108.69083199 313.17113783 111.42993164 313.69287109 C115.12155757 313.14596355 115.82802271 312.58376324 118.48461914 310.15771484 C119.18506348 309.52140137 119.88550781 308.88508789 120.60717773 308.22949219 C121.33243652 307.55740723 122.05769531 306.88532227 122.80493164 306.19287109 C123.51343262 305.55043457 124.22193359 304.90799805 124.9519043 304.24609375 C127.09931502 302.27849367 129.20411173 300.27254725 131.30493164 298.25537109 C132.03196289 297.59085938 132.75899414 296.92634766 133.50805664 296.24169922 C137.96179054 291.94084948 137.96179054 291.94084948 139.74243164 286.18896484 C139.18690566 280.78647467 135.12469105 277.65474313 131.30493164 274.19287109 C130.58950195 273.51353516 129.87407227 272.83419922 129.13696289 272.13427734 C127.37634638 270.46756038 125.59992913 268.82237236 123.80493164 267.19287109 C125.07239906 263.80105686 126.54228963 260.86329835 128.49243164 257.81787109 C136.07737582 245.25011687 144.80493164 228.23898516 144.80493164 213.19287109 C145.44519287 213.21381836 146.0854541 213.23476563 146.74511719 213.25634766 C149.66072739 213.33976394 152.57608616 213.39161078 155.49243164 213.44287109 C157.00353516 213.49314453 157.00353516 213.49314453 158.54516602 213.54443359 C159.52163086 213.55732422 160.4980957 213.57021484 161.50415039 213.58349609 C162.399646 213.60444336 163.2951416 213.62539063 164.21777344 213.64697266 C167.82813438 213.01327714 169.36791937 211.93054843 171.80493164 209.19287109 C172.24495969 206.34933013 172.37419078 204.14685945 172.25024414 201.32177734 C172.23283173 200.56243393 172.21541931 199.80309052 172.19747925 199.02073669 C172.15402165 197.41748883 172.09774818 195.81454394 172.02954102 194.2121582 C171.93040718 191.76710001 171.88438178 189.32507158 171.84399414 186.87841797 C171.79509895 185.31776795 171.743117 183.75721096 171.68774414 182.19677734 C171.67599152 181.46954971 171.66423889 180.74232208 171.65213013 179.99305725 C171.45498105 176.20541445 170.87979398 174.29238072 168.58105469 171.23681641 C165.55891236 169.01173721 164.19865676 168.55065574 160.50415039 168.48583984 C159.52768555 168.45683594 158.5512207 168.42783203 157.54516602 168.39794922 C156.0340625 168.38924805 156.0340625 168.38924805 154.49243164 168.38037109 C153.46569336 168.35523438 152.43895508 168.33009766 151.38110352 168.30419922 C148.85532764 168.24546024 146.33127936 168.20908397 143.80493164 168.19287109 C143.73387207 167.48751221 143.6628125 166.78215332 143.58959961 166.05541992 C141.67169267 148.87485565 133.27381766 132.39620012 123.80493164 118.19287109 C124.28366183 113.56025321 127.59165568 111.11085823 130.80493164 108.06787109 C135.97237096 103.41164656 135.97237096 103.41164656 138.30493164 97.06787109 C137.57393218 91.40262524 134.77119022 89.12789929 130.80493164 85.19287109 C129.63343147 83.99846736 128.46294246 82.8030714 127.29321289 81.60693359 C124.81062432 79.08554456 122.32402313 76.56854012 119.81665039 74.07177734 C119.28515381 73.54140869 118.75365723 73.01104004 118.20605469 72.46459961 C115.44884927 69.96202372 112.69663482 69.67367232 109.01977539 69.72021484 C103.86174686 70.82095815 100.34940974 75.50419898 96.92211914 79.25146484 C96.32657227 79.89212891 95.73102539 80.53279297 95.11743164 81.19287109 C94.59793945 81.79099609 94.07844727 82.38912109 93.54321289 83.00537109 C91.80493164 84.19287109 91.80493164 84.19287109 89.37915039 84.04833984 C86.69257533 83.15553265 84.67292983 82.05024663 82.30493164 80.50537109 C68.71064611 72.11185359 53.60455313 66.52638203 37.80493164 64.19287109 C37.82587891 63.58290283 37.84682617 62.97293457 37.8684082 62.34448242 C37.95186025 59.56494816 38.00368175 56.78567789 38.05493164 54.00537109 C38.10520508 52.56581055 38.10520508 52.56581055 38.15649414 51.09716797 C38.24936673 45.29784052 38.24936673 45.29784052 35.91430664 40.07958984 C31.08055394 35.7560666 24.83862262 36.89402088 18.68408203 36.84277344 C17.22819006 36.82623105 15.77237874 36.79896274 14.31689453 36.76074219 C12.21222041 36.70578986 10.10944657 36.68407493 8.00415039 36.66943359 C6.11442505 36.63970459 6.11442505 36.63970459 4.18652344 36.609375 C-0.15198977 37.35798857 -1.59866067 38.68336392 -4.19506836 42.19287109 Z " fill="#FFD068" transform="translate(1130.195068359375,682.80712890625)"/>
<path d="M0 0 C0.76441406 0.63421875 1.52882813 1.2684375 2.31640625 1.921875 C2.94675781 2.39109375 3.57710937 2.8603125 4.2265625 3.34375 C16.49518002 12.84564056 26.03351113 30.14564321 28.9140625 45.3203125 C31.35185139 67.14207323 27.18250701 87.66413403 13.43823242 105.20825195 C2.07121714 118.88953409 -15.12951636 130.02360734 -33.19140625 131.80078125 C-39.35884546 132.10045306 -45.51293138 132.05423854 -51.68359375 131.921875 C-52.52277344 131.90511719 -53.36195312 131.88835937 -54.2265625 131.87109375 C-72.07429867 130.69910357 -88.02943143 119.2606052 -99.83203125 106.62109375 C-114.39130794 89.57948827 -118.17487404 69.58659227 -116.94970703 47.78271484 C-115.46875879 31.8618419 -105.82776988 16.90769694 -94.68359375 5.921875 C-94.07128906 5.29925781 -93.45898438 4.67664063 -92.828125 4.03515625 C-84.58378055 -3.78730277 -73.77905345 -9.67861908 -62.68359375 -12.078125 C-61.85988281 -12.28050781 -61.03617188 -12.48289062 -60.1875 -12.69140625 C-39.56308497 -17.19629334 -16.67770971 -13.22286373 0 0 Z " fill="#FFD068" transform="translate(1190.68359375,816.078125)"/>
<path d="M0 0 C5.74399579 2.65686697 9.19497326 6.45983994 11.7109375 12.27734375 C12.70575268 18.43472614 11.90059076 23.09982432 8.48828125 28.29296875 C3.43452518 33.93540409 -2.76672882 38.09656688 -9.0859375 42.1875 C-10.36108971 43.02230644 -10.36108971 43.02230644 -11.66200256 43.87397766 C-13.49508753 45.07373254 -15.32952837 46.27141787 -17.16519165 47.46722412 C-22.10840483 50.68823109 -27.04068958 53.92587036 -31.97265625 57.1640625 C-32.98974167 57.83157532 -34.00682709 58.49908813 -35.05473328 59.18682861 C-45.79928414 66.24997008 -56.45442097 73.44355341 -67.1015625 80.65234375 C-78.79559876 88.56560722 -90.49569739 96.45539389 -102.35302734 104.12280273 C-110.02379931 109.08463471 -117.6290562 114.14185515 -125.2265625 119.21484375 C-125.8354834 119.62141205 -126.4444043 120.02798035 -127.07177734 120.4468689 C-130.47860961 122.72209476 -133.88431879 124.99899325 -137.2890625 127.27734375 C-128.0018385 134.29873326 -118.27943139 140.63653734 -108.5456543 147.01416016 C-103.59963064 150.25507747 -98.65946361 153.504902 -93.71875 156.75390625 C-92.73215393 157.4024054 -91.74555786 158.05090454 -90.72906494 158.71905518 C-81.74758767 164.62579922 -72.80263454 170.58603443 -63.86755371 176.56262207 C-55.22126774 182.34408602 -46.55101154 188.08768442 -37.859375 193.80078125 C-36.87100647 194.45073059 -35.88263794 195.10067993 -34.86431885 195.77032471 C-29.98547558 198.97810682 -25.10465828 202.18281896 -20.22070312 205.3828125 C8.03551388 223.92649652 8.03551388 223.92649652 11.7109375 231.27734375 C12.30638722 237.54101682 11.99607407 242.76679208 8.7109375 248.27734375 C4.13715372 253.27847602 -0.3251752 255.64672532 -7.0390625 256.71484375 C-15.16514644 255.62094783 -22.49679809 250.03363324 -29.125 245.46484375 C-29.94497467 244.90752563 -30.76494934 244.35020752 -31.60977173 243.77600098 C-33.37535671 242.57544202 -35.13917489 241.37228131 -36.90136719 240.16674805 C-41.69578772 236.8878491 -46.50446361 233.62998028 -51.3125 230.37109375 C-52.30538025 229.69759888 -53.2982605 229.024104 -54.32122803 228.3302002 C-64.58017036 221.38203507 -74.9292908 214.57382863 -85.2890625 207.77734375 C-101.8887686 196.87869623 -118.3943375 185.84854891 -134.83447266 174.71069336 C-143.24021341 169.01810029 -151.66035432 163.3525523 -160.14453125 157.77734375 C-161.6879299 156.76037019 -163.23130614 155.74336262 -164.7746582 154.72631836 C-167.61168792 152.85746681 -170.45610954 151.00069134 -173.30541992 149.15063477 C-174.56849191 148.31962183 -175.83128589 147.48818612 -177.09375 146.65625 C-178.17640137 145.95056885 -179.25905273 145.2448877 -180.37451172 144.51782227 C-184.43993314 141.39264449 -187.63360635 138.24371221 -189.2890625 133.27734375 C-189.74732076 127.6505333 -190.07591126 122.26320015 -187.9765625 116.96484375 C-179.15346062 108.14174187 -167.51249255 101.74089378 -157.11694336 94.94042969 C-140.92310731 84.34306482 -124.8131574 73.62946054 -108.7890625 62.77734375 C-92.18616025 51.53706889 -75.48866624 40.44846711 -58.73242188 29.43823242 C-56.93878305 28.25963183 -55.14516292 27.08100279 -53.3515625 25.90234375 C-52.05526917 25.05057304 -52.05526917 25.05057304 -50.73278809 24.18159485 C-45.36304015 20.65022358 -40.00646194 17.09994901 -34.6640625 13.52734375 C-34.01864502 13.0958049 -33.37322754 12.66426605 -32.70825195 12.21965027 C-29.80288477 10.27568856 -26.90008975 8.32805516 -24 6.3762207 C-23.02289062 5.72097412 -22.04578125 5.06572754 -21.0390625 4.390625 C-20.20890625 3.83157471 -19.37875 3.27252441 -18.5234375 2.6965332 C-12.54232458 -1.10244072 -6.92993009 -2.18777656 0 0 Z " fill="#FFD069" transform="translate(567.2890625,637.72265625)"/>
<path d="M0 0 C2.56086072 1.31585302 4.81840582 2.62500895 7.1953125 4.2109375 C8.22498138 4.87641853 8.22498138 4.87641853 9.27545166 5.55534363 C11.52838804 7.02030028 13.76554565 8.50702284 16 10 C16.75613586 10.50304657 17.51227173 11.00609314 18.2913208 11.52438354 C23.23412463 14.81956447 28.15333737 18.14877243 33.06604004 21.48861694 C49.04518833 32.34723564 65.10483709 43.07748864 81.25 53.6875 C97.00381118 64.04252241 112.72517279 74.44356212 128.39892578 84.91943359 C129.56926361 85.7016478 129.56926361 85.7016478 130.76324463 86.49966431 C132.30117507 87.527567 133.83905839 88.55554022 135.37689209 89.58358765 C140.32439549 92.88843931 145.28523729 96.17239025 150.25390625 99.4453125 C152.12677694 100.68205974 153.99934694 101.91926072 155.87179565 103.15664673 C157.56096994 104.27028623 159.25416486 105.37781987 160.94750977 106.48510742 C174.21602208 115.25984294 174.21602208 115.25984294 177 122 C177.7617172 127.89866367 177.75943173 133.81953582 174.57006836 139.00390625 C167.53175777 147.95200567 154.26809765 154.16140048 144.82788086 160.33691406 C128.63404481 170.93427893 112.5240949 181.64788321 96.5 192.5 C79.89709775 203.74027486 63.19960374 214.82887664 46.44335938 225.83911133 C44.64972055 227.01771192 42.85610042 228.19634096 41.0625 229.375 C39.76620667 230.22677071 39.76620667 230.22677071 38.44372559 231.0957489 C33.07397765 234.62712017 27.71739944 238.17739474 22.375 241.75 C21.72958252 242.18153885 21.08416504 242.6130777 20.41918945 243.05769348 C17.51382227 245.00165519 14.61102725 246.94928859 11.7109375 248.90112305 C10.73382812 249.55636963 9.75671875 250.21161621 8.75 250.88671875 C7.91984375 251.44576904 7.0896875 252.00481934 6.234375 252.58081055 C0.39739608 256.28823608 -4.1322192 256.61979972 -11 256 C-16.44870404 254.25230248 -19.78541808 250.60721838 -23 246 C-24.60716645 241.17850066 -24.93751158 235.891602 -23.3515625 231 C-19.33515874 223.31047485 -11.26447762 218.66123167 -4.203125 214.08984375 C-3.35275162 213.53312485 -2.50237823 212.97640594 -1.62623596 212.40281677 C0.20712277 211.20287743 2.04183809 210.0050087 3.8777771 208.809021 C8.81259023 205.59353017 13.7365563 202.36153169 18.66015625 199.12890625 C19.67600296 198.46221924 20.69184967 197.79553223 21.73847961 197.10864258 C34.38739471 188.79359858 46.91915126 180.30528969 59.44628906 171.80834961 C67.81987173 166.13365414 76.22350954 160.52093708 84.73088074 155.04858398 C91.9796568 150.38280788 99.15729136 145.61231552 106.32666016 140.82568359 C108.55384417 139.33905953 110.78272181 137.85499785 113.01171875 136.37109375 C114.43499486 135.42202348 115.85817588 134.47281061 117.28125 133.5234375 C117.94459351 133.08188324 118.60793701 132.64032898 119.29138184 132.18539429 C122.2899078 130.27557095 122.2899078 130.27557095 125 128 C124.54425095 127.70108353 124.08850189 127.40216705 123.61894226 127.0941925 C117.63905001 123.17113379 111.66243779 119.24309999 105.6875 115.3125 C104.7087088 114.66862335 103.7299176 114.0247467 102.72146606 113.36135864 C85.97051243 102.33520112 69.31432453 91.17462251 52.73120117 79.89770508 C43.94909131 73.9365131 35.10146642 68.12132366 26.10578918 62.48738098 C17.98154969 57.38818746 9.98923171 52.10031005 2.03320312 46.74316406 C-0.41762548 45.09635831 -2.87674979 43.46241372 -5.3359375 41.828125 C-6.91979276 40.76379712 -8.50314599 39.69872168 -10.0859375 38.6328125 C-10.80985687 38.15458038 -11.53377625 37.67634827 -12.27963257 37.18362427 C-17.44664638 33.67332847 -21.9588241 30.12352771 -24 24 C-24.48514482 18.48843667 -24.76737316 13.62328938 -22.375 8.5625 C-15.55446246 1.20349897 -10.20094619 -1.71068014 0 0 Z " fill="#FFD068" transform="translate(768,637)"/>
<path d="M0 0 C4.46876455 3.07848225 8.07974831 6.73924494 9.8125 11.9375 C10.43377392 18.94400045 9.30460144 24.92061314 7.1875 31.5625 C6.62913999 33.40774688 6.07459848 35.25415255 5.5234375 37.1015625 C5.23823242 38.05579102 4.95302734 39.01001953 4.65917969 39.99316406 C3.23671201 44.93980772 2.02934982 49.93704557 0.8125 54.9375 C-1.24976263 63.35470629 -3.50680062 71.68635681 -5.9375 80.00390625 C-7.85085492 86.61095998 -9.54944458 93.25730526 -11.1875 99.9375 C-13.25139841 108.3543357 -15.50678025 116.68628711 -17.9375 125.00390625 C-19.85085492 131.61095998 -21.54944458 138.25730526 -23.1875 144.9375 C-25.25139841 153.3543357 -27.50678025 161.68628711 -29.9375 170.00390625 C-31.85085492 176.61095998 -33.54944458 183.25730526 -35.1875 189.9375 C-37.25139841 198.3543357 -39.50678025 206.68628711 -41.9375 215.00390625 C-44.14209679 222.61665452 -46.04812558 230.29072716 -47.93530273 237.98730469 C-49.78385335 245.46835587 -51.84187428 252.86948333 -54.00341797 260.26538086 C-55.75792389 266.31040931 -57.32273007 272.38479975 -58.8125 278.5 C-64.88094865 303.05654532 -64.88094865 303.05654532 -74.4375 308.9375 C-80.59167197 310.57861253 -85.77498046 310.12100015 -91.5 307.3125 C-96.36712099 303.01132331 -99.45426501 299.66925985 -99.875 292.9375 C-99.29541022 279.35123364 -94.07637515 265.72308938 -90.15356445 252.7824707 C-87.73700149 244.67224497 -85.79526219 236.43928217 -83.77368164 228.22387695 C-82.05065314 221.26389032 -80.2038388 214.3807645 -78.1015625 207.52734375 C-76.05188583 200.7261439 -74.38435551 193.83369485 -72.6875 186.9375 C-70.66969429 178.73693062 -68.57802988 170.60062741 -66.1015625 162.52734375 C-64.05188583 155.7261439 -62.38435551 148.83369485 -60.6875 141.9375 C-58.66969429 133.73693062 -56.57802988 125.60062741 -54.1015625 117.52734375 C-52.05188583 110.7261439 -50.38435551 103.83369485 -48.6875 96.9375 C-46.66969429 88.73693062 -44.57802988 80.60062741 -42.1015625 72.52734375 C-39.68791037 64.51840714 -37.77996371 56.37806446 -35.78222656 48.2578125 C-33.9662134 40.92215365 -32.04039331 33.64737712 -29.81811523 26.42431641 C-28.58872955 22.41489486 -27.62147838 18.41298209 -26.75 14.3125 C-25.44295651 8.98940109 -23.48380076 5.39475849 -19.1875 1.9375 C-12.93057869 -1.72220869 -6.82007485 -2.27335828 0 0 Z " fill="#FFD069" transform="translate(706.1875,611.0625)"/>
<path d="M0 0 C1.52837743 -0.00350526 3.0567512 -0.0091684 4.58511353 -0.01681519 C8.71738679 -0.0310125 12.84899059 -0.01405328 16.98119974 0.00946999 C21.31321823 0.02963672 25.6452105 0.02369653 29.9772644 0.0213623 C37.2486266 0.0214158 44.51972829 0.04113088 51.79101562 0.07324219 C60.19128781 0.11015952 68.59121928 0.11891315 76.99156201 0.11194468 C85.08393831 0.10563529 93.1761981 0.11640023 101.26855087 0.13591003 C104.70780984 0.14407326 108.14700917 0.14679558 111.58627701 0.1452179 C115.63624566 0.14433765 119.68589153 0.15859245 123.73577499 0.18444443 C125.22002345 0.19159335 126.70430627 0.19369598 128.18856812 0.19032669 C130.21794807 0.18659927 132.24733472 0.20323388 134.27664185 0.2208252 C135.97835635 0.22641827 135.97835635 0.22641827 137.71444893 0.23212433 C143.87429141 0.98076334 147.89322751 3.9974159 151.86669922 8.61523438 C155.05792828 13.45709915 155.89171983 17.95367192 154.86669922 23.61523438 C152.67642578 28.72587241 149.53101635 32.54660468 144.86669922 35.61523438 C141.54096317 36.72381306 139.0524811 36.74943432 135.54801941 36.7624054 C134.90448826 36.76608208 134.2609571 36.76975877 133.59792501 36.77354687 C131.43775249 36.78457545 129.27762809 36.78842612 127.11743164 36.79223633 C125.57009224 36.79850155 124.02275434 36.8051484 122.47541809 36.81214905 C117.39101203 36.83318279 112.30660568 36.84354996 107.22216797 36.85351562 C105.471759 36.85756327 103.72135019 36.86168019 101.97094154 36.86586571 C93.74832836 36.88491491 85.52572414 36.89914719 77.30309314 36.90747768 C67.81092299 36.91725317 58.31898584 36.94358188 48.8268978 36.98397857 C41.49007188 37.01413171 34.15331279 37.02894574 26.8164261 37.03225869 C22.43429211 37.03460987 18.05240712 37.0435792 13.67033958 37.06871986 C9.54740265 37.09199204 5.42487882 37.09623742 1.30189323 37.08595848 C-0.20979435 37.08546282 -1.72150221 37.09179237 -3.23312759 37.10551453 C-5.30046903 37.1232287 -7.366327 37.11613192 -9.43367004 37.10298157 C-10.58938916 37.10536992 -11.74510828 37.10775827 -12.93584919 37.110219 C-17.95476335 36.33326108 -21.76931741 33.52475238 -24.94580078 29.61523438 C-28.50333684 24.73632778 -28.97144652 19.54072986 -28.13330078 13.61523438 C-26.04768877 8.1575581 -22.71463449 4.71140542 -17.77716446 1.70188904 C-12.14885959 -0.61140108 -5.99173298 -0.05791812 0 0 Z " fill="#FFD068" transform="translate(598.13330078125,1048.384765625)"/>
<path d="M0 0 C5.55531701 3.96808358 9.27428273 8.527686 12.5390625 14.4921875 C12.879375 15.08257813 13.2196875 15.67296875 13.5703125 16.28125 C17.17215952 23.85179882 16.68414943 33.89593581 14.6953125 41.87890625 C10.74106182 52.31225011 4.3430391 59.4632783 -5.68212891 64.44018555 C-14.2876144 68.15438308 -24.58928136 67.89339717 -33.5234375 65.3671875 C-43.54197588 61.21692593 -51.17210452 53.15821664 -55.3984375 43.3046875 C-58.68257864 33.90899893 -58.93946994 24.88592194 -54.71875 15.765625 C-49.67654515 6.65207462 -42.42081016 -1.29010359 -32.42578125 -4.84765625 C-21.13614093 -7.36142333 -9.90420214 -6.06828893 0 0 Z " fill="#FFFEFE" transform="translate(1167.4609375,844.5078125)"/>
<path d="M0 0 C24.09 0 48.18 0 73 0 C73 17.82 73 35.64 73 54 C48.91 54 24.82 54 0 54 C0 36.18 0 18.36 0 0 Z " fill="#FFFFFF" transform="translate(625,1141)"/>
<path d="M0 0 C4.95520521 2.57289501 8.49116963 5.98233926 11 11 C11.81591885 16.55651064 11.63718243 20.8454446 8.3125 25.5 C5.1165349 29.18650858 2.77956082 30.73068241 -2.13671875 31.20703125 C-6.93685021 31.42125199 -10.18424859 31.17979284 -14 28 C-17.69086249 24.16234185 -19.83933758 21.128777 -20.25 15.6875 C-19.93534408 11.04632512 -18.88640961 7.91218023 -15.5703125 4.55078125 C-10.74055915 0.35778642 -6.32605218 -0.86428037 0 0 Z " fill="#FFD06A" transform="translate(260,1046)"/>
<path d="M0 0 C4.03700642 2.33643595 7.24706887 4.52379955 8.8203125 9.046875 C9.47117072 14.4267537 9.52009031 18.64731937 7.0703125 23.546875 C3.69874375 27.2930625 0.92733239 29.68586888 -4.23046875 30.28515625 C-9.76865508 30.46689293 -12.82723905 29.79200506 -17.1796875 26.046875 C-17.9634375 25.386875 -18.7471875 24.726875 -19.5546875 24.046875 C-22.17280399 19.21342917 -21.88618764 14.41481933 -21.1796875 9.046875 C-19.15642893 4.51477581 -16.46219027 1.95162587 -12.09765625 -0.25390625 C-7.74663635 -1.84012328 -4.16252458 -1.82017204 0 0 Z " fill="#FFD06A" transform="translate(323.1796875,1046.953125)"/>
</svg>
