<?xml version="1.0" encoding="UTF-8"?>
<svg version="1.1" xmlns="http://www.w3.org/2000/svg" width="1414" height="2000">
<path d="M0 0 C466.62 0 933.24 0 1414 0 C1414 660 1414 1320 1414 2000 C947.38 2000 480.76 2000 0 2000 C0 1340 0 680 0 0 Z " fill="#FFFEFE" transform="translate(0,0)"/>
<path d="M0 0 C0.95999908 -0.0033284 1.91999817 -0.0066568 2.90908813 -0.01008606 C4.92766851 -0.01511883 6.94625711 -0.01749552 8.96484375 -0.01733398 C12.02357916 -0.01952018 15.08195319 -0.03771442 18.140625 -0.05664062 C20.11458212 -0.05957553 22.08854092 -0.06155968 24.0625 -0.0625 C25.41146866 -0.07327827 25.41146866 -0.07327827 26.78768921 -0.08427429 C49.08816124 -0.00550729 70.39201879 9.10907578 86.6640625 24.16796875 C87.42847656 24.85246094 88.19289063 25.53695312 88.98046875 26.2421875 C109.01930263 45.09611642 121.62270457 74.15411186 122.80615234 101.44458008 C122.9088517 105.43656122 122.96268122 109.4248241 122.9765625 113.41796875 C122.97918091 114.13917908 122.98179932 114.8603894 122.98449707 115.60345459 C122.99212027 135.37639477 120.82278858 155.3030337 114.6640625 174.16796875 C114.43380371 174.89790039 114.20354492 175.62783203 113.96630859 176.37988281 C107.8102406 195.75467174 99.51196493 213.6264742 87.6640625 230.16796875 C85.33515038 233.66133693 85.42855107 235.0280474 85.46875 239.1484375 C85.47519531 240.31181641 85.48164062 241.47519531 85.48828125 242.67382812 C85.50503906 243.88876953 85.52179688 245.10371094 85.5390625 246.35546875 C85.54808594 247.58201172 85.55710937 248.80855469 85.56640625 250.07226562 C85.59000233 253.1043617 85.62292409 256.13606813 85.6640625 259.16796875 C105.14229026 268.2156137 124.62229542 277.25821193 144.1640625 286.16796875 C156.45541973 291.77391393 168.73032019 297.41470094 180.99023438 303.08911133 C182.79061132 303.92231575 184.59122348 304.75501213 186.39208984 305.5871582 C191.82384539 308.09769784 197.24858941 310.62249532 202.6640625 313.16796875 C203.70925049 313.6573291 204.75443848 314.14668945 205.83129883 314.65087891 C219.95585522 321.45448256 230.43751258 332.57614776 237.0390625 346.79296875 C242.53380165 363.1352823 242.07130631 380.51691602 241.95703125 397.5234375 C241.95142162 400.00734702 241.94715801 402.4912599 241.94416809 404.97517395 C241.93282685 411.44739278 241.90345439 417.91940296 241.87005615 424.39154053 C241.83912151 431.02206982 241.82561324 437.65262045 241.81054688 444.28320312 C241.7785724 457.24489712 241.72589456 470.20638278 241.6640625 483.16796875 C234.4040625 483.16796875 227.1440625 483.16796875 219.6640625 483.16796875 C219.64218872 478.34860718 219.64218872 478.34860718 219.61987305 473.43188477 C219.56930108 462.75891893 219.50266744 452.08609553 219.42834759 441.41327 C219.38381809 434.94894749 219.3445244 428.48468549 219.31762695 422.02026367 C219.29141919 415.76962203 219.25089577 409.51921545 219.20087624 403.26872063 C219.18432485 400.89642217 219.1727382 398.52408317 219.16644859 396.15173531 C219.76222521 370.96991549 219.76222521 370.96991549 210.6640625 348.16796875 C209.766875 346.83765625 209.766875 346.83765625 208.8515625 345.48046875 C202.33003249 338.58627988 194.3364069 334.91473055 185.78240967 331.16027832 C182.12218059 329.55368801 178.47646481 327.9146117 174.828125 326.28125 C174.07649078 325.94592255 173.32485657 325.61059509 172.55044556 325.2651062 C163.63839901 321.28137048 154.81277914 317.11549396 145.98535156 312.94851685 C144.67032684 312.32788727 143.35511624 311.70765134 142.03970337 311.08784485 C140.31668521 310.27573276 138.59458425 309.46167545 136.87255859 308.64746094 C135.81375488 308.15922852 134.75495117 307.67099609 133.6640625 307.16796875 C133.06329895 306.88554321 132.4625354 306.60311768 131.84356689 306.31213379 C128.46574461 304.77768836 126.45035975 304.16796875 122.6640625 304.16796875 C120.66760515 306.08959905 120.66760515 306.08959905 118.7890625 308.73046875 C114.92682715 313.67975709 110.85223152 318.29441646 106.5390625 322.85546875 C102.37647704 327.27021559 98.24997579 331.6913365 94.29296875 336.29296875 C92.32741161 338.55548056 90.30732941 340.76487558 88.2890625 342.98046875 C85.23547383 346.35737857 82.31977045 349.80014007 79.4765625 353.35546875 C75.08205808 358.79813235 70.35296842 363.88331789 65.53637695 368.95385742 C63.05287514 371.57430293 60.67596682 374.15274717 58.44921875 377 C55.89987821 380.09602626 53.46017087 380.96586777 49.6640625 382.16796875 C46.98564042 382.3147443 44.34953529 382.22089819 41.6640625 382.16796875 C47.82766029 412.02616582 47.82766029 412.02616582 54.4140625 441.79296875 C56.59994581 451.33251005 58.68189963 460.88353946 60.6015625 470.48046875 C60.91915527 472.06625732 60.91915527 472.06625732 61.24316406 473.68408203 C62.6640625 480.89629139 62.6640625 480.89629139 62.6640625 483.16796875 C55.0740625 483.16796875 47.4840625 483.16796875 39.6640625 483.16796875 C37.04770026 473.3062957 34.87444466 463.43069452 32.9140625 453.41796875 C30.65363866 441.87509865 28.19087488 430.39140853 25.6015625 418.91796875 C22.95576078 407.19153915 20.45570278 395.46418167 18.29858398 383.63574219 C17.19412095 377.63586269 15.84361881 371.76548895 14.2434082 365.87695312 C13.67464321 363.21744349 13.55669533 360.87768223 13.6640625 358.16796875 C12.3440625 358.49796875 11.0240625 358.82796875 9.6640625 359.16796875 C6.9049016 373.31307044 4.38457901 387.48015848 2.0625 401.703125 C1.73694095 403.68464478 1.41114015 405.66612485 1.08511353 407.64756775 C0.2385881 412.79619851 -0.60480654 417.94533696 -1.44744873 423.09460449 C-2.30424631 428.32704784 -3.16393116 433.55901667 -4.0234375 438.79101562 C-4.99152495 444.68475135 -5.95934986 450.57852889 -6.92495728 456.47267151 C-8.38315185 465.37316566 -9.8470143 474.27254821 -11.3359375 483.16796875 C-18.9259375 483.16796875 -26.5159375 483.16796875 -34.3359375 483.16796875 C-34.3359375 474.16921714 -34.3359375 474.16921714 -33.71264648 470.64355469 C-33.57482758 469.84365112 -33.43700867 469.04374756 -33.29501343 468.21960449 C-33.14222931 467.37240845 -32.98944519 466.5252124 -32.83203125 465.65234375 C-32.67328522 464.73876099 -32.51453918 463.82517822 -32.35098267 462.88391113 C-32.00878349 460.9172739 -31.6636823 458.9511398 -31.31594849 456.98547363 C-30.38942145 451.74663739 -29.48403462 446.50415319 -28.578125 441.26171875 C-28.3917598 440.18569397 -28.20539459 439.10966919 -28.01338196 438.0010376 C-25.70127494 424.58848213 -23.60043897 411.14254488 -21.50756836 397.69433594 C-21.29830215 396.35852478 -21.29830215 396.35852478 -21.08480835 394.99572754 C-20.824933 393.33617821 -20.56724419 391.67628439 -20.31216431 390.01599121 C-19.8331803 386.96023073 -19.31615037 384.10860737 -18.3359375 381.16796875 C-18.9959375 381.49796875 -19.6559375 381.82796875 -20.3359375 382.16796875 C-26.5007086 382.68169968 -29.43245488 382.25420427 -34.3359375 378.16796875 C-39.0288353 373.81234286 -43.32500194 369.14114889 -47.49609375 364.2890625 C-49.53102569 361.94305817 -51.61884717 359.65060425 -53.7109375 357.35546875 C-56.78340523 353.95713323 -59.72036372 350.49206352 -62.5859375 346.91796875 C-67.24652615 341.15355647 -72.27373031 335.77944922 -77.33984375 330.375 C-81.81756884 325.59683044 -86.1033397 320.68033735 -90.24609375 315.609375 C-90.77452881 314.97193359 -91.30296387 314.33449219 -91.84741211 313.67773438 C-92.9041672 312.40240095 -93.95100389 311.11876803 -94.98657227 309.82617188 C-95.72025024 308.94541992 -95.72025024 308.94541992 -96.46875 308.046875 C-96.90074707 307.51650635 -97.33274414 306.9861377 -97.77783203 306.43969727 C-100.06401451 304.57371097 -101.35874798 304.26969621 -104.3359375 304.16796875 C-107.26019278 305.07578881 -109.95432306 306.39557702 -112.703125 307.734375 C-113.93253563 308.31234581 -113.93253563 308.31234581 -115.18678284 308.9019928 C-117.86772959 310.16543798 -120.53928475 311.44750239 -123.2109375 312.73046875 C-126.92618299 314.49424688 -130.64493205 316.25058928 -134.36328125 318.0078125 C-135.29300247 318.44899414 -136.22272369 318.89017578 -137.18061829 319.34472656 C-142.94399679 322.07140894 -148.73909339 324.7009877 -154.58984375 327.234375 C-155.29572632 327.54232498 -156.00160889 327.85027496 -156.72888184 328.16755676 C-162.13006297 330.52325693 -162.13006297 330.52325693 -164.67205811 331.58889771 C-176.43390348 336.52505158 -186.49940357 343.50857934 -192.3359375 355.16796875 C-196.98647356 367.61777062 -195.8152072 381.54216911 -195.84765625 394.59375 C-195.86452277 397.15350699 -195.88267564 399.71325579 -195.90205383 402.272995 C-195.94452856 408.28972799 -195.97416374 414.30638788 -195.99737722 420.32321471 C-196.02457057 427.18198917 -196.0684723 434.04062634 -196.11366594 440.89930212 C-196.20613685 454.98879853 -196.27578347 469.0782992 -196.3359375 483.16796875 C-203.9259375 483.16796875 -211.5159375 483.16796875 -219.3359375 483.16796875 C-219.38135729 469.80581511 -219.41795011 456.44371383 -219.43956184 443.08150005 C-219.44994116 436.87502329 -219.46399179 430.66860267 -219.48681641 424.4621582 C-219.50875557 418.45801565 -219.52054996 412.45392667 -219.52569199 406.44974709 C-219.52935031 404.17396007 -219.53649239 401.89817555 -219.54739761 399.62241173 C-219.78679503 347.5298788 -219.78679503 347.5298788 -201.6015625 328.44140625 C-200.48007812 327.31605469 -200.48007812 327.31605469 -199.3359375 326.16796875 C-198.73265625 325.54148437 -198.129375 324.915 -197.5078125 324.26953125 C-193.60282772 320.51735022 -189.27067411 317.8965371 -184.5 315.38671875 C-183.84080566 315.03801727 -183.18161133 314.6893158 -182.50244141 314.33004761 C-176.21899706 311.043577 -169.80830081 308.07223332 -163.33325195 305.18408203 C-159.75626545 303.58818902 -156.18741144 301.97423123 -152.6171875 300.36328125 C-151.49056702 299.8557431 -151.49056702 299.8557431 -150.34118652 299.33795166 C-142.30460646 295.7131737 -134.30301595 292.01345821 -126.30255127 288.30981445 C-112.8750557 282.09395354 -99.43265844 275.91243082 -85.9609375 269.79296875 C-85.27620361 269.48182129 -84.59146973 269.17067383 -83.88598633 268.85009766 C-76.71572236 265.59302551 -69.5383846 262.35336475 -62.3359375 259.16796875 C-61.17433656 243.43989197 -60.75527437 232.48127343 -70.87304688 220.1015625 C-86.5608887 199.36596383 -93.29825312 171.32320129 -97.3359375 146.16796875 C-97.51552002 145.09313232 -97.69510254 144.0182959 -97.88012695 142.91088867 C-98.40563652 138.59563038 -98.49796761 134.38500404 -98.50390625 130.04296875 C-98.50889885 128.74613159 -98.50889885 128.74613159 -98.51399231 127.4230957 C-98.51903489 125.59766162 -98.52140146 123.77221839 -98.52124023 121.94677734 C-98.52340906 119.20393943 -98.54154445 116.461516 -98.56054688 113.71875 C-98.60785797 99.68270227 -97.94471642 86.1767756 -93.2734375 72.79296875 C-92.96962158 71.90867187 -92.66580566 71.024375 -92.3527832 70.11328125 C-82.27924832 41.87797178 -63.02824578 19.71407261 -35.82421875 6.671875 C-23.91877646 1.53906953 -12.82850917 0.01580306 0 0 Z " fill="#FFD068" transform="translate(695.3359375,578.83203125)"/>
<path d="M0 0 C170.94 0 341.88 0 518 0 C518 104 518 104 514 110 C510.20138574 112.53240951 507.1742049 112.27990054 502.77366829 112.25726891 C501.9207644 112.26077498 501.06786051 112.26428105 500.18911105 112.26789337 C497.3057081 112.27726304 494.42250467 112.27226979 491.53909302 112.26742554 C489.46116624 112.27115899 487.38324088 112.27575929 485.30531776 112.28115618 C479.5753397 112.29343922 473.84541979 112.2931195 468.11543155 112.29076743 C461.94354261 112.2903606 455.77167266 112.30138556 449.59979248 112.31088257 C437.50061186 112.32752242 425.40145603 112.33301932 413.30226697 112.33410732 C403.47161833 112.33502556 393.64097602 112.33913782 383.81032944 112.34550858 C380.98304523 112.3473036 378.15576101 112.34908322 375.32847679 112.35085833 C374.62565364 112.35130043 373.92283049 112.35174252 373.19870967 112.35219802 C353.42325601 112.36451047 333.64780454 112.37239873 313.87234688 112.37151146 C312.75344073 112.37146472 312.75344073 112.37146472 311.61193042 112.37141704 C307.83100188 112.37125082 304.05007333 112.37105274 300.26914479 112.37084763 C299.5182062 112.37080774 298.76726762 112.37076785 297.99357332 112.37072675 C296.47499188 112.37064587 294.95641044 112.37056228 293.43782901 112.37047596 C269.80667261 112.36925022 246.17557358 112.38426626 222.54443359 112.41162109 C196.00996308 112.44232392 169.47553027 112.45955468 142.94104087 112.45769465 C140.11312795 112.45754538 137.28521502 112.45744797 134.45730209 112.45738602 C133.76097087 112.45736271 133.06463964 112.4573394 132.34720747 112.45731538 C121.12804193 112.45725377 109.90892608 112.47004044 98.68977533 112.48725055 C87.41962771 112.50418164 76.14955219 112.50585673 64.87939252 112.4930319 C58.77048258 112.48647898 52.66175328 112.48646862 46.55286026 112.5037384 C40.96556355 112.51937168 35.37859216 112.51670584 29.79130386 112.49917014 C27.76507161 112.49607864 25.73881566 112.49981263 23.71261133 112.51089029 C20.96734629 112.52491056 18.22323836 112.51450496 15.47801399 112.49777794 C14.28611775 112.51268248 14.28611775 112.51268248 13.07014281 112.52788812 C9.43364225 112.48074365 7.22138338 112.13574019 4.09512413 110.21888888 C-21.1454357 83.48729965 0 36.76497957 0 0 Z " fill="#FFD068" transform="translate(448,1186)"/>
<path d="M0 0 C1.15715099 -0.00320648 2.31430198 -0.00641296 3.50651816 -0.0097166 C6.71931496 -0.01658886 9.93196243 -0.01451271 13.14475667 -0.00866088 C16.63972396 -0.00448975 20.13466994 -0.01189299 23.62963206 -0.01781338 C29.75535368 -0.02657952 35.88104188 -0.02788603 42.00676823 -0.02431011 C51.11592391 -0.01900662 60.22504719 -0.02509483 69.33419935 -0.03339304 C86.54856478 -0.04864348 103.76291551 -0.05033706 120.97728627 -0.04787002 C134.2684347 -0.04603831 147.5595783 -0.0477944 160.85072613 -0.05209446 C162.75935052 -0.05269686 164.66797492 -0.05329805 166.57659932 -0.05389806 C169.45260399 -0.0548053 172.32860866 -0.05571397 175.20461333 -0.05663041 C201.94829622 -0.06506148 228.69197729 -0.06939455 255.43566132 -0.06522369 C256.94833157 -0.06498913 256.94833157 -0.06498913 258.49156082 -0.06474983 C263.60292795 -0.06394403 268.71429507 -0.06309826 273.82566219 -0.06223653 C275.34840053 -0.06197989 275.34840053 -0.06197989 276.90190126 -0.06171808 C278.95479916 -0.06137142 281.00769706 -0.06102289 283.06059496 -0.06067249 C315.01011917 -0.05531421 346.9596158 -0.06324813 378.90913486 -0.08170605 C414.79325147 -0.10241272 450.67735099 -0.11315136 486.56147391 -0.10913056 C490.38611193 -0.1087352 494.21074996 -0.10837366 498.03538799 -0.10803318 C498.97713173 -0.10794245 499.91887548 -0.10785172 500.88915691 -0.10775824 C515.1175991 -0.10659133 529.34602405 -0.11324762 543.57446194 -0.1238451 C559.75176842 -0.13588172 575.92903688 -0.13747379 592.10634392 -0.12505493 C601.16294761 -0.11841396 610.21946045 -0.12008587 619.27605692 -0.13364345 C625.32290024 -0.14186699 631.36967525 -0.13921776 637.41651298 -0.12766818 C640.86355803 -0.12139093 644.31042534 -0.11986433 647.75746035 -0.13153151 C651.46983707 -0.14157821 655.18173173 -0.13326574 658.89408875 -0.12025452 C659.96523529 -0.12756386 661.03638184 -0.13487321 662.13998738 -0.14240405 C669.60094505 -0.08794078 676.38811121 0.86950789 682.25996494 5.94197559 C682.79105869 6.37896778 683.32215244 6.81595997 683.86933994 7.26619434 C688.9847071 13.46553216 690.12025865 19.43588715 690.07637119 27.30916309 C690.08256977 28.25075275 690.08876835 29.19234241 690.09515476 30.1624651 C690.10222314 32.14413393 690.09913137 34.12586252 690.08638096 36.10750294 C690.07253319 39.11465519 690.10660953 42.11867996 690.14473057 45.12556934 C690.2223522 64.51333695 690.2223522 64.51333695 683.17329502 72.83186817 C676.26853995 79.47660656 666.77591119 79.69195077 657.77942085 79.63758564 C656.62056137 79.64254516 655.46170188 79.64750467 654.26772544 79.65261447 C651.05938485 79.66331389 647.85138061 79.6606562 644.64304355 79.65228098 C641.14945629 79.64646322 637.6559186 79.65802975 634.16234487 79.66734266 C628.04209865 79.68124703 621.92192635 79.68399097 615.80166721 79.67938328 C606.70057799 79.67254923 597.59956358 79.68281122 588.49848475 79.69634084 C571.29868672 79.72125265 554.09891974 79.72576979 536.89910657 79.72387487 C523.61850886 79.72250199 510.33792192 79.72631849 497.05732632 79.73379993 C495.14955892 79.73485027 493.24179152 79.73589788 491.33402411 79.7369428 C489.91352438 79.73772181 489.91352438 79.73772181 488.46432769 79.73851657 C487.04123671 79.73929678 487.04123671 79.73929678 485.58939642 79.74009275 C484.16393213 79.74087874 484.16393213 79.74087874 482.70967059 79.74168061 C455.98099042 79.7562642 429.25231421 79.76454621 402.52363014 79.75993061 C401.51596577 79.75975866 400.5083014 79.7595867 399.47010175 79.75940954 C394.3628122 79.75852064 389.25552266 79.75757583 384.14823312 79.75661153 C383.1339013 79.75642049 382.11956948 79.75622946 381.07450033 79.75603264 C379.02327564 79.75564555 376.97205094 79.75525522 374.92082624 79.75486166 C342.99779144 79.74889052 311.07482911 79.76433485 279.15181065 79.79646778 C243.28962897 79.83253513 207.42749325 79.85187882 171.5652923 79.84692907 C167.74233465 79.84645909 163.919377 79.84604884 160.09641933 79.84567738 C159.15510344 79.84557499 158.21378755 79.8454726 157.24394693 79.84536711 C143.02787613 79.84417179 128.81185496 79.85614582 114.59579754 79.87482166 C98.43101929 79.89604724 82.26634521 79.89992009 66.10156233 79.88052207 C57.05419646 79.87018707 48.0070846 79.87368828 38.95974164 79.89705293 C32.91657155 79.91127674 26.87358957 79.9073297 20.8304322 79.88860716 C17.38707244 79.87844982 13.94420735 79.87614336 10.50087834 79.89592785 C6.78890882 79.91303858 3.07826912 79.89942609 -0.63364983 79.87809467 C-2.23163107 79.89651096 -2.23163107 79.89651096 -3.86189476 79.9152993 C-10.99568605 79.82946463 -16.56853575 78.35389406 -22.49003506 74.25447559 C-29.17010776 67.22262325 -30.80281092 60.90860241 -30.82597256 51.42244434 C-30.83262936 50.47186649 -30.83928616 49.52128864 -30.84614468 48.5419054 C-30.85625184 46.53392433 -30.8609623 44.52590981 -30.86064053 42.51790333 C-30.86500541 39.46272681 -30.90132284 36.40900536 -30.93925381 33.35408497 C-30.94512421 31.39770967 -30.9490921 29.44132755 -30.95097256 27.48494434 C-30.96534359 26.57947361 -30.97971462 25.67400288 -30.99452114 24.74109364 C-30.94406578 17.65508776 -29.19181522 12.45204634 -24.59550381 7.01228809 C-23.96257412 6.47345997 -23.32964443 5.93463184 -22.67753506 5.37947559 C-22.05233974 4.82517872 -21.42714443 4.27088184 -20.78300381 3.69978809 C-14.33746189 -0.36298961 -7.36656818 -0.03016989 0 0 Z " fill="#FFD068" transform="translate(377.49003505706787,1084.745524406433)"/>
<path d="M0 0 C1.38076763 0.00084798 2.76153661 0.00036779 4.14230347 -0.00132751 C7.86072199 -0.00218222 11.57884547 0.01535752 15.29719591 0.03639436 C19.19423934 0.05524953 23.0912908 0.05691852 26.9883728 0.06047058 C34.35462564 0.06976524 41.72074363 0.09434376 49.08693731 0.12451905 C57.47876797 0.15814376 65.87060535 0.17456929 74.2624867 0.18960536 C91.51279676 0.22089588 108.76297588 0.27360572 126.01318359 0.34057617 C127.8297588 3.60916212 129.6407359 6.88081634 131.45068359 10.15307617 C131.96695313 11.0818457 132.48322266 12.01061523 133.01513672 12.9675293 C133.75473633 14.30654297 133.75473633 14.30654297 134.50927734 15.67260742 C134.96488037 16.4947876 135.4204834 17.31696777 135.88989258 18.1640625 C137.01318359 20.34057617 137.01318359 20.34057617 138.01318359 23.34057617 C137.23442525 23.34112094 136.4556669 23.34166571 135.65330982 23.34222698 C116.70782352 23.35719171 97.76258127 23.39962596 78.81722736 23.47266674 C69.65538684 23.50732573 60.49369692 23.53267345 51.33178711 23.53613281 C43.34661258 23.53917145 35.3617062 23.55964828 27.37663525 23.60110074 C23.1481859 23.62244174 18.92011786 23.63502583 14.69161415 23.62672997 C10.71135165 23.61919658 6.73186221 23.63498252 2.75174141 23.66863632 C1.29127531 23.67687835 -0.16926754 23.6766091 -1.62972641 23.66717339 C-3.62482831 23.65555987 -5.6200413 23.67762076 -7.61503601 23.70133972 C-9.28947297 23.70548779 -9.28947297 23.70548779 -10.99773693 23.70971966 C-14.95893091 24.54574461 -16.45919001 26.24852624 -18.98681641 29.34057617 C-20.04610821 32.51845158 -20.1014058 34.7664656 -20.08447266 38.10229492 C-20.07963867 39.7796875 -20.07963867 39.7796875 -20.07470703 41.4909668 C-20.06632812 42.65821289 -20.05794922 43.82545898 -20.04931641 45.02807617 C-20.04480469 46.20692383 -20.04029297 47.38577148 -20.03564453 48.6003418 C-20.02384914 51.51380406 -20.00738911 54.4271648 -19.98681641 57.34057617 C-18.62532471 57.30915527 -18.62532471 57.30915527 -17.23632812 57.27709961 C-13.84803999 57.20866684 -10.4604929 57.15865322 -7.07177734 57.12084961 C-5.60909389 57.10081285 -4.14648975 57.07357513 -2.68408203 57.03881836 C-0.57385631 56.98994392 1.53530495 56.96752958 3.64599609 56.94995117 C4.91330566 56.92900391 6.18061523 56.90805664 7.48632812 56.88647461 C11.6416181 57.42149049 13.76436054 58.75094337 17.01318359 61.34057617 C19.36560706 64.54842635 19.48160449 67.43706869 19.01318359 71.34057617 C16.88164349 75.29915066 15.25492346 77.78671616 11.01318359 79.34057617 C7.80517578 79.56762695 7.80517578 79.56762695 4.06005859 79.53588867 C3.39983704 79.53305878 2.73961548 79.53022888 2.05938721 79.52731323 C-0.03953537 79.51616032 -2.13802383 79.49106563 -4.23681641 79.46557617 C-5.66389356 79.45554001 -7.09097743 79.44641527 -8.51806641 79.43823242 C-12.00778968 79.41623728 -15.49726064 79.38174153 -18.98681641 79.34057617 C-18.84042725 80.48179932 -18.69403809 81.62302246 -18.54321289 82.79882812 C-17.81360151 89.39257574 -17.52767372 96.01220124 -17.20143318 102.63527489 C-17.08153631 105.06812701 -16.95820775 107.50078561 -16.83409119 109.9334259 C-16.56949648 115.13149331 -16.30917126 120.32976998 -16.04931641 125.52807617 C-15.70987451 132.31338652 -15.36830233 139.09858236 -15.02197266 145.88354492 C-14.97935303 146.71975246 -14.9367334 147.55596001 -14.89282227 148.41750717 C-14.27693475 160.43749985 -13.54031147 172.4427916 -12.70866394 184.44999695 C-11.77700272 198.06643768 -11.10860801 211.6930954 -10.45880127 225.32531738 C-10.3277586 228.04826704 -10.19213914 230.77098211 -10.05664635 233.49371338 C-9.89213082 236.81751368 -9.73270896 240.14155329 -9.57275391 243.46557617 C-9.48373306 245.2502832 -9.48373306 245.2502832 -9.39291382 247.07104492 C-9.01324696 255.16908303 -8.93840653 263.23353566 -8.98681641 271.34057617 C-16.57681641 271.34057617 -24.16681641 271.34057617 -31.98681641 271.34057617 C-34.4376938 231.02346046 -36.62094317 190.69294978 -38.75327873 150.35792923 C-39.31924965 139.65232707 -39.88910422 128.94694847 -40.46442956 118.24184477 C-40.8760549 110.57706379 -41.28336882 102.9120609 -41.68753082 95.2468828 C-41.92624891 90.72129994 -42.16666932 86.19582502 -42.41174889 81.67058182 C-44.14244456 49.66085163 -44.14244456 49.66085163 -44.23217773 36.91235352 C-44.2424509 36.11147623 -44.25272406 35.31059895 -44.26330853 34.48545265 C-44.22123424 24.76949126 -40.53659718 16.95397991 -33.86181641 10.02026367 C-23.92705654 1.12037463 -12.93041659 -0.1095434 0 0 Z " fill="#FFD06A" transform="translate(469.98681640625,791.659423828125)"/>
<path d="M0 0 C18.97639661 -0.09360947 37.95274611 -0.16406041 56.92932606 -0.20724869 C65.74129283 -0.22783839 74.55311579 -0.25588995 83.36499023 -0.30175781 C91.04905523 -0.34173596 98.73301603 -0.3674589 106.41718215 -0.37635398 C110.48264229 -0.38155023 114.54780446 -0.39368751 118.61316872 -0.42292023 C122.44715684 -0.45026334 126.28072694 -0.45840732 130.11480331 -0.45243073 C131.51474346 -0.45352259 132.91469899 -0.46136354 134.31455421 -0.4768219 C146.43022858 -0.60394284 156.12849643 1.21858066 165.05859375 9.78125 C168.0527087 13.20309566 170.15033207 16.86238942 172 21 C172.34458252 21.75651855 172.68916504 22.51303711 173.04418945 23.29248047 C174.0747302 26.21168785 174.25826976 28.40873078 174.265625 31.49609375 C174.26965332 32.59236084 174.27368164 33.68862793 174.27783203 34.81811523 C174.26864746 36.01251221 174.25946289 37.20690918 174.25 38.4375 C174.24202393 40.33254272 174.24202393 40.33254272 174.23388672 42.26586914 C174.05635545 65.1763317 172.37649357 88.07283089 170.75268555 110.91674805 C169.77832011 125.24154557 169.25260008 139.58921042 168.69726562 153.93530273 C168.6580751 154.92217575 168.61888458 155.90904877 168.57850647 156.92582703 C168.50538536 158.77281977 168.43473885 160.61991303 168.36717224 162.46711731 C168.20081272 166.64974639 167.94442986 170.79299852 167.50219727 174.95605469 C166.94017181 180.26773481 166.70015015 185.57020141 166.5 190.90625 C166.45939453 191.9115979 166.41878906 192.9169458 166.37695312 193.95275879 C166.24848976 197.13506801 166.12376102 200.31750466 166 203.5 C165.83674561 207.6980612 165.66954737 211.89593875 165.5 216.09375 C165.46455078 217.03883423 165.42910156 217.98391846 165.39257812 218.9576416 C165.17799108 224.26090642 164.78436695 229.50859031 164.22290039 234.78619385 C163.94915617 237.50497169 163.8104381 240.21466542 163.71875 242.9453125 C163.68136719 243.95980469 163.64398437 244.97429687 163.60546875 246.01953125 C163.53489122 248.09764727 163.46458071 250.17577237 163.39453125 252.25390625 C163.35714844 253.26582031 163.31976562 254.27773437 163.28125 255.3203125 C163.25095703 256.22023926 163.22066406 257.12016602 163.18945312 258.04736328 C162.95430417 261.71217182 162.45549832 265.35601346 162 269 C154.74 269 147.48 269 140 269 C139.80368957 255.45458003 140.1494289 242.02087768 140.875 228.5 C140.91429626 227.75820496 140.95359253 227.01640991 140.99407959 226.25213623 C141.41351024 218.42441747 141.88448322 210.60098664 142.42651367 202.78076172 C143.50519701 187.19580864 144.42811844 171.60820436 145.25390625 156.0078125 C145.30730667 155.00010048 145.36070709 153.99238846 145.41572571 152.95413971 C145.91419672 143.53280318 146.40673788 134.11115784 146.89819336 124.68945312 C147.17042962 119.47410362 147.44545299 114.25890674 147.72208977 109.04378891 C147.87551048 106.1347015 148.0256379 103.22545622 148.17567444 100.31619263 C148.27001282 98.53386499 148.36452158 96.75154637 148.45922852 94.96923828 C148.49924484 94.17551315 148.53926117 93.38178802 148.58049011 92.56401062 C148.84507219 87.66996488 149.34161838 82.85723721 150 78 C149.11739502 78.01571045 148.23479004 78.0314209 147.32543945 78.04760742 C144.03599114 78.09887998 140.74697039 78.13641917 137.45727539 78.16479492 C136.03630859 78.1798376 134.61538787 78.20027704 133.19458008 78.22631836 C131.14653114 78.26290347 129.0990985 78.27977097 127.05078125 78.29296875 C125.82012939 78.3086792 124.58947754 78.32438965 123.3215332 78.34057617 C119.71873747 77.97116051 117.87653979 77.15248151 115 75 C112.32006831 71.01675806 112.16456922 66.64036303 113 62 C115.18159145 59.24430553 116.87177494 57.56411253 120 56 C122.32416296 55.91413191 124.65083307 55.89288957 126.9765625 55.90234375 C128.00443375 55.90446617 128.00443375 55.90446617 129.05307007 55.90663147 C131.24375761 55.91223325 133.4343433 55.92478594 135.625 55.9375 C137.10937352 55.94251478 138.59374865 55.94707772 140.078125 55.95117188 C143.71878315 55.96220323 147.35938164 55.97946901 151 56 C151.14570522 51.79203314 151.23421087 47.58471834 151.3125 43.375 C151.35439453 42.18519531 151.39628906 40.99539063 151.43945312 39.76953125 C151.7122801 32.5833514 151.7122801 32.5833514 148.85546875 26.2265625 C144.21514001 22.60824871 139.26901115 22.87498418 133.54592896 22.87974548 C131.62775108 22.87768349 131.62775108 22.87768349 129.67082214 22.87557983 C128.2663877 22.87911829 126.8619535 22.88275309 125.45751953 22.88647461 C123.96896873 22.88675688 122.48041779 22.88659797 120.99186707 22.8860321 C116.96134691 22.88574569 112.93085664 22.89161728 108.90034342 22.89860606 C104.68428608 22.90486549 100.46822802 22.90544545 96.25216675 22.90663147 C88.27314254 22.90973715 80.29413207 22.91794025 72.3151139 22.92798096 C63.22929704 22.93916579 54.14347952 22.94465852 45.05765748 22.94967639 C26.37176387 22.9601235 7.68588304 22.97770817 -11 23 C-10.34251427 19.84155182 -9.23161861 17.2946779 -7.71484375 14.453125 C-7.26689453 13.60878906 -6.81894531 12.76445313 -6.35742188 11.89453125 C-5.88884766 11.02183594 -5.42027344 10.14914062 -4.9375 9.25 C-4.46505859 8.36183594 -3.99261719 7.47367188 -3.50585938 6.55859375 C-2.34111686 4.37028963 -1.17238288 2.18421752 0 0 Z " fill="#FFD06A" transform="translate(820,793)"/>
<path d="M0 0 C0.77153241 -0.00311998 1.54306481 -0.00623996 2.33797699 -0.00945449 C4.93129201 -0.01745155 7.52437415 -0.01110421 10.11769104 -0.00482178 C11.97369016 -0.0075309 13.82968821 -0.01109139 15.6856842 -0.01544189 C20.73316152 -0.02457811 25.78055729 -0.02101639 30.82803607 -0.01468372 C36.10460811 -0.00962935 41.38117305 -0.01431368 46.65774536 -0.01745605 C55.52087155 -0.02109766 64.38396444 -0.01629183 73.24708557 -0.0067749 C83.49959974 0.00410666 93.75203435 0.00058701 104.00454658 -0.01042771 C112.79950818 -0.01949904 121.5944458 -0.02078652 130.38941056 -0.01555037 C135.6455297 -0.0124294 140.90161144 -0.01202478 146.1577282 -0.01862335 C151.09970962 -0.02439381 156.04158834 -0.02040538 160.98355865 -0.00883484 C162.79923138 -0.00618651 164.61491273 -0.00695629 166.43058205 -0.01136017 C168.90549887 -0.0168103 171.38008482 -0.00998798 173.85498047 0 C174.57667197 -0.00446144 175.29836347 -0.00892289 176.04192442 -0.01351953 C179.67913418 0.01502906 182.44754209 0.16391469 185.49098206 2.25396729 C188.64392956 6.19515166 189.02353524 9.28347086 188.49098206 14.25396729 C186.66682491 18.4783312 184.59540026 20.27049342 180.49098206 22.25396729 C177.86859659 22.53865149 175.48734522 22.66396822 172.86880493 22.64164734 C171.72943573 22.64972565 171.72943573 22.64972565 170.56704897 22.65796715 C168.02598412 22.672256 165.48543953 22.66514087 162.9443512 22.65802002 C161.12085552 22.66372311 159.29736342 22.67068713 157.47387695 22.67881775 C152.52346341 22.69677102 147.57322691 22.69557669 142.62279058 22.68987536 C138.48999135 22.68678666 134.3572263 22.69287243 130.22443193 22.69891411 C120.47479283 22.71296485 110.72524133 22.71139347 100.9756012 22.70001221 C90.91728041 22.68853007 80.85922623 22.70260705 70.80094057 22.72940868 C62.16470494 22.75155949 53.52855303 22.75820446 44.89229101 22.75233227 C39.73445499 22.74896006 34.57678988 22.75139536 29.41897774 22.7685833 C24.56879144 22.78404046 19.71900034 22.7801105 14.86882973 22.76127815 C13.08947068 22.75758888 11.31008244 22.76071059 9.53075027 22.77116394 C7.10009153 22.7843528 4.6707452 22.77284612 2.24014282 22.75517273 C1.53731409 22.76477774 0.83448535 22.77438274 0.11035877 22.78427881 C-4.8573994 22.71004476 -7.66298207 21.33177751 -11.50901794 18.25396729 C-14.09546259 14.84456298 -13.87404909 11.41532239 -13.50901794 7.25396729 C-10.44912528 0.69705443 -6.7696021 -0.04172022 0 0 Z " fill="#FFFEFE" transform="translate(619.5090179443359,1208.7460327148438)"/>
<path d="M0 0 C0.48726562 0.27972656 0.97453125 0.55945313 1.4765625 0.84765625 C3.97058674 2.25791359 6.48339605 3.63041962 9 5 C10.04027344 5.5775 11.08054687 6.155 12.15234375 6.75 C31.56142279 17.06593662 53.28225286 19.42328099 74.4921875 13.1953125 C83.38434649 10.16524496 91.09804383 6.60231394 98.91796875 1.35546875 C101 0 101 0 102 0 C103.15733401 6.49392971 104.30900574 13.44095967 100.54248047 19.24658203 C96.76874539 23.6388647 92.4468014 27.38118466 88.05419922 31.13720703 C85.33732346 33.60092964 83.00732534 36.31268258 80.63696289 39.10522461 C78.23433413 41.88625396 75.62995872 44.43626953 73 47 C69.04335104 50.9026835 65.27145331 54.87416845 61.66796875 59.109375 C58.61481008 62.57009817 55.30030819 65.77684187 52 69 C49.09778672 67.68729086 47.03287708 66.28101018 44.79296875 64.0234375 C44.20580078 63.43433594 43.61863281 62.84523438 43.01367188 62.23828125 C42.1097168 61.31595703 42.1097168 61.31595703 41.1875 60.375 C40.59646484 59.78332031 40.00542969 59.19164062 39.39648438 58.58203125 C36.34485068 55.50044695 33.41168619 52.35714647 30.58203125 49.0703125 C26.76685928 44.65993741 22.65865786 40.58426326 18.5 36.5 C13.64520752 31.73205533 8.94292357 26.92349961 4.52539062 21.74414062 C3.04447367 19.97454653 3.04447367 19.97454653 1.32104492 18.5222168 C-0.37480341 16.56812063 -0.35063877 15.54498533 -0.29296875 12.98828125 C-0.28330078 12.23095703 -0.27363281 11.47363281 -0.26367188 10.69335938 C-0.23853516 9.90767578 -0.21339844 9.12199219 -0.1875 8.3125 C-0.17396484 7.51521484 -0.16042969 6.71792969 -0.14648438 5.89648438 C-0.11117089 3.93070033 -0.05736447 1.96526418 0 0 Z " fill="#FFFEFC" transform="translate(656,834)"/>
<path d="M0 0 C0.88735336 -0.0071553 1.77470673 -0.01431061 2.68894958 -0.02168274 C3.65991577 -0.02437164 4.63088196 -0.02706055 5.63127136 -0.02983093 C7.16828957 -0.03968773 7.16828957 -0.03968773 8.73635864 -0.04974365 C12.13256399 -0.06947962 15.52872514 -0.08113926 18.92497253 -0.09111023 C20.08418402 -0.09518576 21.2433955 -0.09926128 22.4377346 -0.10346031 C28.57190651 -0.12432119 34.70605603 -0.1386235 40.84025574 -0.147995 C47.17900797 -0.15906625 53.51740983 -0.19347477 59.85603809 -0.23316669 C64.72793231 -0.25929652 69.59974253 -0.26768357 74.47170067 -0.27127647 C76.80848752 -0.27615092 79.14527041 -0.28778916 81.48198891 -0.30631447 C84.75208548 -0.33063034 88.02126854 -0.32975444 91.29142761 -0.32279968 C92.73876785 -0.34201477 92.73876785 -0.34201477 94.21534729 -0.36161804 C101.24331995 -0.30714131 104.31216483 1.23528508 109.59294128 5.83467102 C111.34373496 9.64522197 110.94766245 13.20730106 109.65544128 17.14717102 C107.4490337 19.87311062 104.79290615 21.57843859 101.65544128 23.14717102 C100.23975523 23.25147314 98.81937014 23.2952658 97.39990234 23.30780029 C96.50695465 23.31784592 95.61400696 23.32789154 94.69400024 23.33824158 C93.22048851 23.34698807 93.22048851 23.34698807 91.71720886 23.35591125 C90.68452881 23.36569504 89.65184875 23.37547882 88.58787537 23.38555908 C85.15858762 23.41555707 81.72933903 23.43691186 78.29997253 23.45576477 C77.13005957 23.4623366 75.9601466 23.46890842 74.75478172 23.4756794 C68.56111739 23.50829381 62.36747041 23.53273847 56.17375183 23.55220032 C51.04524207 23.5700116 45.91728231 23.60482717 40.78898621 23.65473938 C34.60097354 23.71490017 28.41347088 23.74567106 22.22517967 23.755373 C19.86685445 23.76393672 17.50854317 23.78277713 15.1503849 23.81211662 C11.84653426 23.85100546 8.54467136 23.85206821 5.24064636 23.8441925 C4.26842636 23.86419312 3.29620636 23.88419373 2.29452515 23.90480042 C-3.6252051 23.84153928 -6.78960608 22.80948271 -11.07672596 18.66061497 C-13.34844141 15.94881092 -13.60952263 13.83342402 -13.75471497 10.40107727 C-13.01668761 6.34544122 -10.49878663 3.67055335 -7.34455872 1.14717102 C-4.56221393 0.21972276 -2.87434436 0.01592933 0 0 Z " fill="#FFFDFB" transform="translate(658.3445587158203,1258.8528289794922)"/>
</svg>
